<svg width="512" height="512" viewBox="0 0 512 512" fill="none" xmlns="http://www.w3.org/2000/svg">
<circle cx="256" cy="256" r="246.063" fill="white" stroke="#E0E0E0" stroke-width="8"/>
<path fill-rule="evenodd" clip-rule="evenodd" d="M255.998 471.507C375.016 471.507 471.504 375.029 471.504 256.001C471.504 136.973 375.016 40.4946 255.998 40.4946C136.98 40.4946 40.4922 137.003 40.4922 256.001C40.4922 374.999 136.97 471.507 255.998 471.507ZM256.878 451.292C364.727 451.292 452.148 363.86 452.148 256.011C452.148 148.162 364.727 60.7302 256.878 60.7302C149.029 60.7302 61.5971 148.121 61.5971 256.001C61.5971 363.88 149.029 451.281 256.878 451.281V451.292ZM255.998 436.332C291.663 436.332 326.526 425.757 356.179 405.943C385.833 386.129 408.945 357.966 422.593 325.017C436.242 292.067 439.813 255.811 432.855 220.832C425.897 185.853 408.723 153.723 383.505 128.505C358.286 103.286 326.156 86.1122 291.177 79.1544C256.198 72.1967 219.942 75.7677 186.992 89.4158C154.043 103.064 125.881 126.176 106.067 155.83C86.2528 185.483 75.6771 220.347 75.6771 256.011C75.6798 303.833 94.679 349.696 128.496 383.511C162.312 417.325 208.176 436.322 255.998 436.322V436.332ZM256.433 414.348C287.835 414.348 318.531 405.036 344.641 387.591C370.75 370.145 391.101 345.349 403.118 316.338C415.135 287.327 418.28 255.404 412.155 224.605C406.029 193.807 390.909 165.516 368.705 143.311C346.501 121.106 318.212 105.984 287.414 99.8566C256.616 93.7292 224.693 96.872 195.681 108.887C166.669 120.903 141.871 141.252 124.424 167.36C106.977 193.469 97.6633 224.165 97.6613 255.566C97.6613 297.675 114.389 338.059 144.164 367.835C173.94 397.61 214.324 414.338 256.433 414.338V414.348ZM256.787 282.412C248.997 282.404 241.22 283.053 233.539 284.353L245.112 264.36C249.014 264.097 252.915 263.966 256.787 263.966C265.89 263.971 274.978 264.698 283.966 266.139L239.169 188.552L164.554 317.739L153.89 299.272L238.997 151.861L239.169 152.164L239.341 151.871L342.055 329.767H320.728L296.722 288.194C283.767 284.313 270.311 282.361 256.787 282.402V282.412ZM348.656 318.042L249.216 145.807H270.543L359.319 299.575L348.656 318.042ZM249.964 230.792L209.129 301.546C223.745 297.139 240.938 295.168 257.161 295.168C258.475 295.168 259.789 295.168 261.103 295.219C270.315 295.437 279.495 296.39 288.555 298.069L302.18 321.671C287.763 316.36 272.525 313.623 257.161 313.584C234.775 313.505 212.722 319.008 192.997 329.595L193.3 329.059L192.886 329.767H171.559L239.371 212.325L249.964 230.792Z" fill="url(#paint0_linear)"/>
<defs>
<linearGradient id="paint0_linear" x1="380.07" y1="446.116" x2="128.055" y2="59.9621" gradientUnits="userSpaceOnUse">
<stop offset="0.01" stop-color="#645AFF"/>
<stop offset="0.5" stop-color="#E40C5B"/>
<stop offset="1" stop-color="#FF4C3B"/>
</linearGradient>
</defs>
</svg>
