<svg width="32" height="32" viewBox="0 0 32 32" fill="none" xmlns="http://www.w3.org/2000/svg">
<path d="M16 32C24.8366 32 32 24.8366 32 16C32 7.16344 24.8366 0 16 0C7.16344 0 0 7.16344 0 16C0 24.8366 7.16344 32 16 32Z" fill="white"/>
<g filter="url(#filter0_d)">
<path d="M15.725 6.05958C16.204 5.81258 16.789 6.38358 16.535 6.85458C16.386 7.23858 15.825 7.34058 15.539 7.04758C15.236 6.76758 15.335 6.21158 15.725 6.05858V6.05958ZM10.57 6.60558C10.861 6.48758 11.23 6.74958 11.2 7.06258C11.23 7.40058 10.81 7.65058 10.513 7.48958C10.12 7.33958 10.165 6.71158 10.57 6.60558V6.60558ZM21.128 7.49858C20.673 7.44458 20.601 6.74058 21.038 6.59858C21.378 6.43658 21.69 6.74158 21.74 7.05858C21.668 7.32858 21.438 7.57658 21.128 7.49858V7.49858ZM11.743 8.76358C12.23 8.46058 12.924 8.91158 12.849 9.46858C12.824 10.0296 12.066 10.3556 11.638 9.97558C11.224 9.67758 11.287 8.99358 11.743 8.76358ZM19.173 9.08558C19.39 8.53558 20.27 8.51758 20.517 9.05358C20.762 9.47058 20.461 9.98758 20.026 10.1296C19.449 10.2356 18.902 9.62158 19.173 9.08558ZM15.104 10.0986C15.099 9.62458 15.537 9.27258 15.994 9.23958C16.298 9.29958 16.628 9.42658 16.758 9.72758C17.001 10.1436 16.785 10.7146 16.348 10.9056C16.148 11.0156 15.91 10.9746 15.692 10.9616C15.359 10.8016 15.078 10.4846 15.104 10.0986ZM7.43798 10.7886C7.88298 10.5186 8.48298 11.0086 8.31398 11.4846C8.22198 11.8956 7.65998 12.0626 7.33898 11.8006C6.99598 11.5546 7.04998 10.9636 7.43898 10.7876L7.43798 10.7886ZM23.9 10.7866C24.277 10.4986 24.9 10.8296 24.854 11.2976C24.88 11.7246 24.341 12.0476 23.967 11.8276C23.555 11.6446 23.512 11.0206 23.9 10.7876V10.7866ZM17.26 11.6376C17.882 11.4176 18.622 11.6806 18.976 12.2276C19.444 12.8946 19.196 13.9106 18.469 14.2936C17.717 14.7466 16.618 14.3636 16.339 13.5356C16.024 12.7956 16.484 11.8696 17.259 11.6376H17.26ZM13.607 11.7106C14.297 11.3906 15.226 11.6586 15.559 12.3526C15.951 13.0286 15.648 13.9696 14.947 14.3186C14.245 14.7116 13.254 14.4136 12.915 13.6886C12.534 12.9866 12.872 12.0336 13.607 11.7106V11.7106ZM9.94998 12.9396C10.003 12.5026 10.422 12.2176 10.845 12.1876C11.0656 12.2109 11.2718 12.3083 11.4298 12.464C11.5878 12.6197 11.6884 12.8244 11.715 13.0446C11.685 13.4946 11.332 13.9326 10.848 13.9306C10.315 13.9756 9.84798 13.4536 9.94998 12.9396V12.9396ZM20.752 12.2836C21.299 11.9706 22.058 12.4256 22.034 13.0436C22.071 13.6986 21.231 14.1596 20.687 13.7756C20.121 13.4556 20.165 12.5556 20.752 12.2836ZM12.122 14.5906C12.76 14.4176 13.492 14.7136 13.805 15.2916C14.148 15.8736 14.008 16.6816 13.475 17.1096C12.79 17.7356 11.529 17.4836 11.165 16.6296C10.746 15.8466 11.255 14.7966 12.121 14.5896L12.122 14.5906ZM19.049 14.5876C19.67 14.4126 20.4 14.6476 20.734 15.2046C21.176 15.8416 20.965 16.7926 20.308 17.2026C19.618 17.6796 18.552 17.4296 18.172 16.6836C17.712 15.9126 18.175 14.8226 19.049 14.5876V14.5876ZM8.00898 15.3136C8.56098 15.1086 9.17298 15.7076 8.94898 16.2466C8.81298 16.7366 8.10998 16.9186 7.74698 16.5566C7.32198 16.2166 7.47898 15.4616 8.00898 15.3136V15.3136ZM22.978 16.0956C22.9676 15.8755 23.0446 15.6601 23.1922 15.4965C23.3397 15.3328 23.546 15.234 23.766 15.2216C24.144 15.2816 24.512 15.5816 24.482 15.9866C24.517 16.5216 23.862 16.8846 23.398 16.6336C23.181 16.5246 23.07 16.3056 22.978 16.0956ZM5.29398 15.5796C5.62598 15.4366 6.03698 15.7196 5.96098 16.0826C5.94298 16.4936 5.32598 16.6526 5.09998 16.3086C4.89998 16.0696 5.01998 15.7026 5.29398 15.5786V15.5796ZM26.243 15.5706C26.477 15.4076 26.853 15.5246 26.945 15.7936C27.102 16.0876 26.814 16.4896 26.478 16.4406C26.006 16.4826 25.854 15.7756 26.243 15.5706ZM13.926 17.5436C14.8 17.3206 15.74 18.0376 15.746 18.9236C15.802 19.8186 14.876 20.6116 13.982 20.4056C13.29 20.2956 12.747 19.6396 12.77 18.9526C12.768 18.2946 13.272 17.6826 13.926 17.5436V17.5436ZM17.388 17.5426C18.275 17.2986 19.243 18.0286 19.229 18.9346C19.276 19.8126 18.379 20.5796 17.503 20.4046C16.678 20.3006 16.07 19.4096 16.3 18.6216C16.416 18.0976 16.862 17.6716 17.388 17.5416V17.5426ZM10.712 18.0876C11.326 17.9846 11.902 18.6576 11.653 19.2316C11.471 19.8436 10.567 20.0086 10.167 19.5096C9.69898 19.0296 10.049 18.1536 10.712 18.0876V18.0876ZM20.866 18.1146C21.414 17.8886 22.086 18.3546 22.044 18.9396C22.066 19.5826 21.236 20.0266 20.701 19.6506C20.094 19.3136 20.205 18.3206 20.866 18.1146V18.1146ZM23.704 20.9146C23.49 20.5216 23.879 20.0006 24.324 20.0736C24.544 20.0696 24.699 20.2406 24.84 20.3846C24.869 20.6176 24.918 20.8956 24.721 21.0746C24.454 21.4076 23.849 21.3126 23.704 20.9146V20.9146ZM7.43598 20.1826C7.85098 19.9116 8.44798 20.3166 8.35398 20.7926C8.30398 21.2156 7.76398 21.4566 7.40898 21.2166C7.02698 20.9996 7.04098 20.3806 7.43598 20.1826V20.1826ZM15.629 21.0656C16.172 20.8306 16.864 21.2956 16.812 21.8836C16.852 22.5336 15.997 22.9836 15.466 22.5936C14.876 22.2586 14.975 21.2726 15.629 21.0656V21.0656ZM11.835 21.9366C12.297 21.6976 12.917 22.1106 12.875 22.6206C12.889 23.0386 12.475 23.3946 12.055 23.3326C11.708 23.3256 11.482 23.0186 11.37 22.7276C11.376 22.4106 11.509 22.0576 11.835 21.9376V21.9366ZM19.521 21.9446C19.997 21.6546 20.673 22.0706 20.628 22.6146C20.64 23.1846 19.876 23.5486 19.433 23.1746C19.005 22.8816 19.057 22.1776 19.521 21.9446ZM20.858 25.1946C20.646 24.8806 20.895 24.5016 21.238 24.4296C21.515 24.4846 21.808 24.6896 21.749 25.0036C21.709 25.4306 21.075 25.5606 20.858 25.1956V25.1946ZM10.247 24.9216C10.331 24.6716 10.535 24.4246 10.834 24.4896C11.269 24.5196 11.398 25.1656 11.017 25.3646C10.675 25.5916 10.277 25.2806 10.247 24.9216ZM15.367 25.2086C15.45 24.8386 15.935 24.6596 16.255 24.8556C16.467 24.9456 16.529 25.1776 16.583 25.3756C16.5544 25.4784 16.5278 25.5818 16.503 25.6856C16.372 25.8376 16.203 25.9906 15.985 25.9856C15.58 26.0326 15.214 25.5816 15.366 25.2086H15.367Z" fill="black"/>
</g>
<path d="M15.725 6.05958C16.204 5.81258 16.789 6.38358 16.535 6.85458C16.386 7.23858 15.825 7.34058 15.539 7.04758C15.236 6.76758 15.335 6.21158 15.725 6.05858V6.05958ZM10.57 6.60558C10.861 6.48758 11.23 6.74958 11.2 7.06258C11.23 7.40058 10.81 7.65058 10.513 7.48958C10.12 7.33958 10.165 6.71158 10.57 6.60558V6.60558ZM21.128 7.49858C20.673 7.44458 20.601 6.74058 21.038 6.59858C21.378 6.43658 21.69 6.74158 21.74 7.05858C21.668 7.32858 21.438 7.57658 21.128 7.49858V7.49858ZM11.743 8.76358C12.23 8.46058 12.924 8.91158 12.849 9.46858C12.824 10.0296 12.066 10.3556 11.638 9.97558C11.224 9.67758 11.287 8.99358 11.743 8.76358ZM19.173 9.08558C19.39 8.53558 20.27 8.51758 20.517 9.05358C20.762 9.47058 20.461 9.98758 20.026 10.1296C19.449 10.2356 18.902 9.62158 19.173 9.08558ZM15.104 10.0986C15.099 9.62458 15.537 9.27258 15.994 9.23958C16.298 9.29958 16.628 9.42658 16.758 9.72758C17.001 10.1436 16.785 10.7146 16.348 10.9056C16.148 11.0156 15.91 10.9746 15.692 10.9616C15.359 10.8016 15.078 10.4846 15.104 10.0986ZM7.43798 10.7886C7.88298 10.5186 8.48298 11.0086 8.31398 11.4846C8.22198 11.8956 7.65998 12.0626 7.33898 11.8006C6.99598 11.5546 7.04998 10.9636 7.43898 10.7876L7.43798 10.7886ZM23.9 10.7866C24.277 10.4986 24.9 10.8296 24.854 11.2976C24.88 11.7246 24.341 12.0476 23.967 11.8276C23.555 11.6446 23.512 11.0206 23.9 10.7876V10.7866ZM17.26 11.6376C17.882 11.4176 18.622 11.6806 18.976 12.2276C19.444 12.8946 19.196 13.9106 18.469 14.2936C17.717 14.7466 16.618 14.3636 16.339 13.5356C16.024 12.7956 16.484 11.8696 17.259 11.6376H17.26ZM13.607 11.7106C14.297 11.3906 15.226 11.6586 15.559 12.3526C15.951 13.0286 15.648 13.9696 14.947 14.3186C14.245 14.7116 13.254 14.4136 12.915 13.6886C12.534 12.9866 12.872 12.0336 13.607 11.7106V11.7106ZM9.94998 12.9396C10.003 12.5026 10.422 12.2176 10.845 12.1876C11.0656 12.2109 11.2718 12.3083 11.4298 12.464C11.5878 12.6197 11.6884 12.8244 11.715 13.0446C11.685 13.4946 11.332 13.9326 10.848 13.9306C10.315 13.9756 9.84798 13.4536 9.94998 12.9396V12.9396ZM20.752 12.2836C21.299 11.9706 22.058 12.4256 22.034 13.0436C22.071 13.6986 21.231 14.1596 20.687 13.7756C20.121 13.4556 20.165 12.5556 20.752 12.2836ZM12.122 14.5906C12.76 14.4176 13.492 14.7136 13.805 15.2916C14.148 15.8736 14.008 16.6816 13.475 17.1096C12.79 17.7356 11.529 17.4836 11.165 16.6296C10.746 15.8466 11.255 14.7966 12.121 14.5896L12.122 14.5906ZM19.049 14.5876C19.67 14.4126 20.4 14.6476 20.734 15.2046C21.176 15.8416 20.965 16.7926 20.308 17.2026C19.618 17.6796 18.552 17.4296 18.172 16.6836C17.712 15.9126 18.175 14.8226 19.049 14.5876V14.5876ZM8.00898 15.3136C8.56098 15.1086 9.17298 15.7076 8.94898 16.2466C8.81298 16.7366 8.10998 16.9186 7.74698 16.5566C7.32198 16.2166 7.47898 15.4616 8.00898 15.3136V15.3136ZM22.978 16.0956C22.9676 15.8755 23.0446 15.6601 23.1922 15.4965C23.3397 15.3328 23.546 15.234 23.766 15.2216C24.144 15.2816 24.512 15.5816 24.482 15.9866C24.517 16.5216 23.862 16.8846 23.398 16.6336C23.181 16.5246 23.07 16.3056 22.978 16.0956ZM5.29398 15.5796C5.62598 15.4366 6.03698 15.7196 5.96098 16.0826C5.94298 16.4936 5.32598 16.6526 5.09998 16.3086C4.89998 16.0696 5.01998 15.7026 5.29398 15.5786V15.5796ZM26.243 15.5706C26.477 15.4076 26.853 15.5246 26.945 15.7936C27.102 16.0876 26.814 16.4896 26.478 16.4406C26.006 16.4826 25.854 15.7756 26.243 15.5706ZM13.926 17.5436C14.8 17.3206 15.74 18.0376 15.746 18.9236C15.802 19.8186 14.876 20.6116 13.982 20.4056C13.29 20.2956 12.747 19.6396 12.77 18.9526C12.768 18.2946 13.272 17.6826 13.926 17.5436V17.5436ZM17.388 17.5426C18.275 17.2986 19.243 18.0286 19.229 18.9346C19.276 19.8126 18.379 20.5796 17.503 20.4046C16.678 20.3006 16.07 19.4096 16.3 18.6216C16.416 18.0976 16.862 17.6716 17.388 17.5416V17.5426ZM10.712 18.0876C11.326 17.9846 11.902 18.6576 11.653 19.2316C11.471 19.8436 10.567 20.0086 10.167 19.5096C9.69898 19.0296 10.049 18.1536 10.712 18.0876V18.0876ZM20.866 18.1146C21.414 17.8886 22.086 18.3546 22.044 18.9396C22.066 19.5826 21.236 20.0266 20.701 19.6506C20.094 19.3136 20.205 18.3206 20.866 18.1146V18.1146ZM23.704 20.9146C23.49 20.5216 23.879 20.0006 24.324 20.0736C24.544 20.0696 24.699 20.2406 24.84 20.3846C24.869 20.6176 24.918 20.8956 24.721 21.0746C24.454 21.4076 23.849 21.3126 23.704 20.9146V20.9146ZM7.43598 20.1826C7.85098 19.9116 8.44798 20.3166 8.35398 20.7926C8.30398 21.2156 7.76398 21.4566 7.40898 21.2166C7.02698 20.9996 7.04098 20.3806 7.43598 20.1826V20.1826ZM15.629 21.0656C16.172 20.8306 16.864 21.2956 16.812 21.8836C16.852 22.5336 15.997 22.9836 15.466 22.5936C14.876 22.2586 14.975 21.2726 15.629 21.0656V21.0656ZM11.835 21.9366C12.297 21.6976 12.917 22.1106 12.875 22.6206C12.889 23.0386 12.475 23.3946 12.055 23.3326C11.708 23.3256 11.482 23.0186 11.37 22.7276C11.376 22.4106 11.509 22.0576 11.835 21.9376V21.9366ZM19.521 21.9446C19.997 21.6546 20.673 22.0706 20.628 22.6146C20.64 23.1846 19.876 23.5486 19.433 23.1746C19.005 22.8816 19.057 22.1776 19.521 21.9446ZM20.858 25.1946C20.646 24.8806 20.895 24.5016 21.238 24.4296C21.515 24.4846 21.808 24.6896 21.749 25.0036C21.709 25.4306 21.075 25.5606 20.858 25.1956V25.1946ZM10.247 24.9216C10.331 24.6716 10.535 24.4246 10.834 24.4896C11.269 24.5196 11.398 25.1656 11.017 25.3646C10.675 25.5916 10.277 25.2806 10.247 24.9216ZM15.367 25.2086C15.45 24.8386 15.935 24.6596 16.255 24.8556C16.467 24.9456 16.529 25.1776 16.583 25.3756C16.5544 25.4784 16.5278 25.5818 16.503 25.6856C16.372 25.8376 16.203 25.9906 15.985 25.9856C15.58 26.0326 15.214 25.5816 15.366 25.2086H15.367Z" fill="#246DD3"/>
<defs>
<filter id="filter0_d" x="4.00043" y="5.5" width="23.9886" height="21.989" filterUnits="userSpaceOnUse" color-interpolation-filters="sRGB">
<feFlood flood-opacity="0" result="BackgroundImageFix"/>
<feColorMatrix in="SourceAlpha" type="matrix" values="0 0 0 0 0 0 0 0 0 0 0 0 0 0 0 0 0 0 127 0"/>
<feOffset dy="0.5"/>
<feGaussianBlur stdDeviation="0.5"/>
<feColorMatrix type="matrix" values="0 0 0 0 0 0 0 0 0 0 0 0 0 0 0 0 0 0 0.204257 0"/>
<feBlend mode="normal" in2="BackgroundImageFix" result="effect1_dropShadow"/>
<feBlend mode="normal" in="SourceGraphic" in2="effect1_dropShadow" result="shape"/>
</filter>
</defs>
</svg>
