<svg xmlns="http://www.w3.org/2000/svg" xmlns:xlink="http://www.w3.org/1999/xlink" width="100px" height="100px" viewBox="0 0 100 100"><title>8C90DC63-69AA-443F-BA12-6AED4DFF2F16@3x</title><defs><linearGradient x1="14.6445603%" y1="85.3626777%" x2="85.3606851%" y2="14.6465529%" id="linearGradient-1"><stop stop-color="#102054" offset="0%"></stop><stop stop-color="#1A45B8" offset="100%"></stop></linearGradient><linearGradient x1="50.0121781%" y1="-0.296997207%" x2="50.0121781%" y2="101.066865%" id="linearGradient-2"><stop stop-color="#FFFFFF" offset="0%"></stop><stop stop-color="#FFFFFF" stop-opacity="0.6" offset="100%"></stop></linearGradient><linearGradient x1="50.0254911%" y1="100.360562%" x2="50.0254911%" y2="0.883938547%" id="linearGradient-3"><stop stop-color="#FFFFFF" offset="0%"></stop><stop stop-color="#FFFFFF" stop-opacity="0.6" offset="100%"></stop></linearGradient></defs><g id="Page-1" stroke="none" stroke-width="1" fill="none" fill-rule="evenodd"><g id="Desktop_NewLandingpage2" transform="translate(-144.000000, -145.000000)" fill-rule="nonzero"><g id="Alpha_Logo_02" transform="translate(144.000000, 145.000000)"><circle id="Oval" fill="url(#linearGradient-1)" cx="49.5871567" cy="49.5688081" r="49.5688081"></circle><path d="M49.5871567,19.5963306 L49.5871567,19.6238535 L49.596331,39.2385327 L53.1467898,48.1100925 L49.6055053,45.155964 L49.6055053,54.623854 C49.623854,54.651377 49.6422026,54.6697256 49.6605512,54.6972485 C55.3669733,61.8348633 62.4862395,67.7981661 70.6055056,72.1467901 L70.6055056,72.1467901 L70.6055056,72.1467901 L49.5871567,19.5963306 Z" id="Path" fill="url(#linearGradient-2)"></path><path d="M49.5871567,19.5963306 L49.5871567,19.6238535 L49.5779824,39.2385327 L46.0275236,48.1100925 L49.5688078,45.155964 L49.5688078,54.623854 C49.5504595,54.651377 49.5321108,54.6697256 49.5137622,54.6972485 C43.8073401,61.8348633 36.6880739,67.7981661 28.5688078,72.1467901 L28.5688078,72.1467901 L28.5688078,72.1467901 L49.5871567,19.5963306 Z" id="Path" fill="url(#linearGradient-3)"></path><circle id="Oval" fill="#F5CC02" cx="49.5871567" cy="61.8807349" r="4.77064227"></circle></g></g></g></svg>