<svg width="96" height="96" viewBox="0 0 96 96" fill="none" xmlns="http://www.w3.org/2000/svg">
<circle cx="48" cy="48" r="48" fill="#0B0E11"/>
<path d="M79.235 42.264L70.7505 33.7726L53.7256 16.7547C52.9778 16.0038 52.0885 15.4087 51.1092 15.0038C50.1299 14.5988 49.08 14.3921 48.0203 14.3956C47.4988 14.3959 46.9785 14.4451 46.4662 14.5426C46.2142 14.5916 45.9622 14.6546 45.7102 14.7246C44.4129 15.1083 43.23 15.8055 42.266 16.7547L31.3314 27.6893L16.7916 42.264C15.7737 43.2719 15.0425 44.5328 14.6734 45.9169C14.3043 47.3011 14.3106 48.7585 14.6915 50.1395C15.0694 51.5 15.7929 52.7395 16.7916 53.7377L23.96 60.906L30.7784 67.7244L42.301 79.247C43.8256 80.7574 45.8848 81.6047 48.0308 81.6047C50.1768 81.6047 52.2361 80.7574 53.7606 79.247L57.3938 75.5858L62.8401 70.1395L67.7404 65.2393L79.235 53.7307C80.7491 52.2067 81.599 50.1456 81.599 47.9974C81.599 45.8491 80.7491 43.788 79.235 42.264Z" fill="#0B0E11"/>
<path fill-rule="evenodd" clip-rule="evenodd" d="M58.2296 68.563L66.658 64.0116L67.7258 65.2478L53.7343 79.2391C50.5315 82.3858 45.4181 82.3858 42.2714 79.2391L16.7611 53.7287C13.6145 50.5259 13.6145 45.4125 16.7611 42.266L42.2714 16.7555C45.4744 13.6088 50.5877 13.6088 53.7343 16.7555L75.5924 38.6135L68.5124 38.3888C68.5124 38.3888 63.7362 38.3888 61.4324 29.3983C61.4324 29.3983 56.6562 34.2307 60.6458 40.4116L55.8696 45.244L52.2172 44.963C52.2172 44.963 48.5649 44.682 45.4181 37.0964C45.4181 37.0964 41.4848 40.5239 44.3506 46.9859C44.3506 46.9859 29.9658 42.2658 32.1572 32.0955C32.1572 32.0955 27.1 40.5802 36.484 53.7849C36.484 53.7849 35.9782 61.0897 37.383 61.9325L40.1925 63.6182L38.5068 66.4278L58.2296 68.563ZM55.7571 49.9697C54.6895 51.4306 53.2848 52.2172 52.2173 52.6106C51.8238 52.7792 51.9362 53.341 52.3295 53.3972C57.2744 53.8467 56.7686 51.4868 56.4876 50.2505C56.3753 49.8572 55.9818 49.6324 55.7571 49.9697Z" fill="url(#paint0_linear_5492_2884)"/>
<defs>
<linearGradient id="paint0_linear_5492_2884" x1="38.5152" y1="27.0936" x2="54.3884" y2="68.6927" gradientUnits="userSpaceOnUse">
<stop stop-color="#F15F40"/>
<stop offset="1" stop-color="#EF2356"/>
</linearGradient>
</defs>
</svg>
