<svg width="96" height="97" viewBox="0 0 96 97" fill="none" xmlns="http://www.w3.org/2000/svg">
<circle cx="48" cy="48.521" r="48" fill="white"/>
<path d="M40.1449 77.98C52.0762 77.98 61.7481 68.3081 61.7481 56.3769C61.7481 44.4456 52.0762 34.7737 40.1449 34.7737C28.2137 34.7737 18.5417 44.4456 18.5417 56.3769C18.5417 68.3081 28.2137 77.98 40.1449 77.98ZM40.1449 85.8357C23.8758 85.8357 10.686 72.646 10.686 56.3769C10.686 40.1077 23.8758 26.918 40.1449 26.918C56.4141 26.918 69.6038 40.1077 69.6038 56.3769C69.6038 72.646 56.4141 85.8357 40.1449 85.8357Z" fill="#FBCC5C"/>
<path d="M55.8563 62.2687C67.7876 62.2687 77.4595 52.5968 77.4595 40.6655C77.4595 28.7343 67.7876 19.0624 55.8563 19.0624C43.9251 19.0624 34.2532 28.7343 34.2532 40.6655C34.2532 52.5968 43.9251 62.2687 55.8563 62.2687ZM55.8563 70.1244C39.5872 70.1244 26.3975 56.9347 26.3975 40.6655C26.3975 24.3964 39.5872 11.2067 55.8563 11.2067C72.1255 11.2067 85.3152 24.3964 85.3152 40.6655C85.3152 56.9347 72.1255 70.1244 55.8563 70.1244Z" fill="#35D07F"/>
<path d="M56.8282 70.1241C58.8713 67.6485 60.3356 64.7478 61.1142 61.6338C64.228 60.8554 67.1287 59.3913 69.6045 57.3486C69.4916 60.954 68.715 64.5078 67.3137 67.8317C63.9894 69.2338 60.4351 70.0109 56.829 70.1241H56.8282ZM34.8863 35.4067C31.7724 36.1851 28.8717 37.6492 26.396 39.6919C26.5089 36.0864 27.2855 32.5327 28.6868 29.2088C32.0112 27.8072 35.5655 27.0307 39.1715 26.918C37.129 29.3932 35.6649 32.2934 34.8863 35.4067Z" fill="#5EA33B"/>
</svg>
