<svg width="96" height="96" viewBox="0 0 96 96" fill="none" xmlns="http://www.w3.org/2000/svg">
<path d="M48 96C74.5097 96 96 74.5097 96 48C96 21.4903 74.5097 0 48 0C21.4903 0 0 21.4903 0 48C0 74.5097 21.4903 96 48 96Z" fill="#FBFCFD"/>
<path fill-rule="evenodd" clip-rule="evenodd" d="M15.9746 43.4566C15.9746 43.4566 15.9713 64.4454 15.9746 67.4963C15.9746 68.5363 16.4877 68.9871 17.465 68.9955C29.0202 69.1188 43.2818 59.2219 54.9917 50.8983L54.6748 51.585L54.9917 22.9487C43.4561 31.144 28.7498 42.1296 17.4748 41.959C16.4633 41.9455 15.9746 42.3761 15.9746 43.4566Z" fill="url(#paint0_linear)"/>
<mask id="mask0" mask-type="alpha" maskUnits="userSpaceOnUse" x="41" y="25" width="39" height="47">
<path d="M78.3412 25.613C67.0197 25.613 52.4654 36.0843 41.0239 44.3433V71.7014C52.4915 63.7135 67.4439 52.4689 78.5237 52.6374C79.5161 52.6526 79.9979 52.2229 79.9979 51.146C79.9979 51.146 80.0027 30.1562 79.9979 27.1111C79.9963 26.0697 79.4937 25.6248 78.5349 25.613H78.3412Z" fill="white"/>
</mask>
<g mask="url(#mask0)">
<path d="M78.3412 25.613C67.0197 25.613 52.4654 36.0843 41.0239 44.3433V71.7014C52.4915 63.7135 67.4439 52.4689 78.5237 52.6374C79.5161 52.6526 79.9979 52.2229 79.9979 51.146C79.9979 51.146 80.0027 30.1562 79.9979 27.1111C79.9963 26.0697 79.4937 25.6248 78.5349 25.613H78.3412Z" fill="url(#paint1_linear)"/>
</g>
<path fill-rule="evenodd" clip-rule="evenodd" d="M54.6668 49.6952L54.8747 34.8113C49.7661 37.8841 45.3159 40.8654 41.0464 44.1396L41.0239 60.2982C46.1325 57.2254 49.9821 54.2455 54.6789 51.1256" fill="#2650A3"/>
<defs>
<linearGradient id="paint0_linear" x1="15.9731" y1="68.9967" x2="34.3303" y2="24.8641" gradientUnits="userSpaceOnUse">
<stop stop-color="#194AAD"/>
<stop offset="0.5" stop-color="#248FCB"/>
<stop offset="1" stop-color="#2BBFDF"/>
</linearGradient>
<linearGradient id="paint1_linear" x1="53.0199" y1="75.34" x2="75.6482" y2="24.5488" gradientUnits="userSpaceOnUse">
<stop stop-color="#57D8F1"/>
<stop offset="1" stop-color="#194AAD"/>
</linearGradient>
</defs>
</svg>
