<svg width="261" height="261" viewBox="0 0 261 261" fill="none" xmlns="http://www.w3.org/2000/svg">
<g opacity="0.9">
<g clip-path="url(#clip0)">
<path d="M130.524 260.288C202.321 260.288 260.524 202.085 260.524 130.288C260.524 58.4911 202.321 0.288086 130.524 0.288086C58.7269 0.288086 0.523926 58.4911 0.523926 130.288C0.523926 202.085 58.7269 260.288 130.524 260.288Z" fill="#E1AA4C"/>
<path d="M73.6492 65.8299C74.4617 66.3716 75.2742 66.3716 76.3575 66.3716C76.8992 66.3716 77.4409 66.3716 77.9825 66.1007L130.524 50.3924L183.066 66.3716C184.42 66.9132 186.045 66.6424 187.399 65.8299C188.753 65.0174 189.566 63.9341 190.108 62.5799C190.92 59.6007 189.295 56.6216 186.316 55.5382L130.524 38.7466L74.7325 55.5382C71.7534 56.3507 70.1284 59.6007 70.9409 62.5799C71.4825 63.9341 72.295 65.2882 73.6492 65.8299Z" fill="white"/>
<path d="M212.315 67.1838C211.774 64.7463 209.878 62.5796 207.17 62.5796C205.003 62.3088 202.836 63.6629 201.753 65.5588L170.065 127.038H90.9821L59.5655 65.5588C58.4821 63.3921 56.3155 62.3088 54.1488 62.5796C51.4405 62.8504 49.5446 64.7463 49.003 67.1838C48.4613 70.1629 44.128 96.9754 52.253 128.663C59.2946 157.1 78.253 196.371 128.357 220.746L130.795 221.83L133.232 220.746C183.065 196.371 202.024 157.371 209.336 128.663C216.92 96.9754 212.586 70.1629 212.315 67.1838ZM116.982 201.788C89.0863 183.642 70.6696 158.184 62.8155 125.955C59.0238 111.33 58.2113 97.7879 58.4821 87.4963L82.8571 134.892L116.982 201.788ZM164.378 138.142L130.524 203.684L96.6696 138.142H164.378ZM202.836 87.7671C202.836 98.0588 202.024 111.6 198.232 126.225C190.107 158.455 171.961 183.913 143.795 202.059L178.461 135.163L202.836 87.7671Z" fill="white"/>
</g>
</g>
<defs>
<clipPath id="clip0">
<rect width="260" height="260" fill="white" transform="translate(0.523926 0.288086)"/>
</clipPath>
</defs>
</svg>
