<svg width="136" height="136" viewBox="0 0 136 136" fill="none" xmlns="http://www.w3.org/2000/svg">
<circle cx="68.274" cy="67.5943" r="67.5635" fill="white"/>
<path d="M68.2741 39.9447C77.762 39.9447 85.4535 35.4693 85.4535 29.9487C85.4535 24.428 77.762 19.9526 68.2741 19.9526C58.7862 19.9526 51.0947 24.428 51.0947 29.9487C51.0947 35.4693 58.7862 39.9447 68.2741 39.9447Z" fill="#E6007A"/>
<path d="M68.2741 115.236C77.762 115.236 85.4535 110.76 85.4535 105.239C85.4535 99.7188 77.762 95.2434 68.2741 95.2434C58.7862 95.2434 51.0947 99.7188 51.0947 105.239C51.0947 110.76 58.7862 115.236 68.2741 115.236Z" fill="#E6007A"/>
<path d="M44.3296 53.7696C49.0735 45.5528 49.0435 36.6542 44.2625 33.8938C39.4814 31.1335 31.7599 35.5568 27.016 43.7736C22.272 51.9904 22.3021 60.8891 27.0831 63.6494C31.8641 66.4097 39.5856 61.9864 44.3296 53.7696Z" fill="#E6007A"/>
<path d="M109.533 91.4151C114.277 83.1984 114.247 74.2997 109.466 71.5393C104.685 68.779 96.963 73.2023 92.2191 81.4191C87.4751 89.6359 87.5052 98.5346 92.2862 101.295C97.0672 104.055 104.789 99.6319 109.533 91.4151Z" fill="#E6007A"/>
<path d="M44.2624 101.294C49.0435 98.534 49.0735 89.6353 44.3296 81.4185C39.5856 73.2017 31.8641 68.7784 27.0831 71.5387C22.3021 74.2991 22.272 83.1978 27.016 91.4145C31.7599 99.6313 39.4814 104.055 44.2624 101.294Z" fill="#E6007A"/>
<path d="M109.465 63.6499C114.246 60.8895 114.276 51.9909 109.532 43.7741C104.788 35.5573 97.0667 31.134 92.2857 33.8943C87.5047 36.6546 87.4746 45.5533 92.2186 53.7701C96.9625 61.9869 104.684 66.4102 109.465 63.6499Z" fill="#E6007A"/>
</svg>
