<svg width="96" height="96" viewBox="0 0 96 96" fill="none" xmlns="http://www.w3.org/2000/svg">
<mask id="mask0" mask-type="alpha" maskUnits="userSpaceOnUse" x="0" y="0" width="96" height="96">
<path fill-rule="evenodd" clip-rule="evenodd" d="M0 0H96V96H0V0Z" fill="white"/>
</mask>
<g mask="url(#mask0)">
<path fill-rule="evenodd" clip-rule="evenodd" d="M48 96C21.6 96 0 74.4 0 47.76C0.24 21.36 21.6 -0.239972 48.24 2.77327e-05C74.64 0.240028 96 21.6 96 48.48C95.76 74.64 74.4 96 48 96Z" fill="#0090FF"/>
<path fill-rule="evenodd" clip-rule="evenodd" d="M52.56 42.24L51.12 49.92L64.8 51.84L63.84 55.44L50.4 53.52C49.44 56.64 48.96 60 47.76 62.88C46.56 66.24 45.36 69.6 43.92 72.72C42 76.8 38.64 79.68 34.08 80.4C31.44 80.88 28.56 80.64 26.4 78.96C25.68 78.48 24.96 77.52 24.96 76.8C24.96 75.84 25.44 74.64 26.16 74.16C26.64 73.92 27.84 74.16 28.56 74.4C29.28 75.12 30 76.08 30.48 77.04C31.92 78.96 33.84 79.2 35.76 77.76C37.92 75.84 39.12 73.2 39.84 70.56C41.28 64.8 42.72 59.28 43.92 53.52V52.56L31.2 50.64L31.68 47.04L44.88 48.96L46.56 41.52L32.88 39.36L33.36 35.52L47.52 37.44C48 36 48.24 34.8 48.72 33.6C49.92 29.28 51.12 24.96 54 21.12C56.88 17.28 60.24 14.88 65.28 15.12C67.44 15.12 69.6 15.84 71.04 17.52C71.28 17.76 71.76 18.24 71.76 18.72C71.76 19.68 71.76 20.88 71.04 21.6C70.08 22.32 68.88 22.08 67.92 21.12C67.2 20.4 66.72 19.68 66 18.96C64.56 17.04 62.4 16.8 60.72 18.48C59.52 19.68 58.32 21.36 57.6 23.04C55.92 28.08 54.72 33.36 53.04 38.64L66.24 40.56L65.28 44.16L52.56 42.24Z" fill="white"/>
</g>
</svg>
