<svg width="97" height="97" viewBox="0 0 97 97" fill="none" xmlns="http://www.w3.org/2000/svg">
<path d="M48.9897 96.0097C75.502 96.0097 96.9945 74.5172 96.9945 48.0048C96.9945 21.4925 75.502 0 48.9897 0C22.4774 0 0.984863 21.4925 0.984863 48.0048C0.984863 74.5172 22.4774 96.0097 48.9897 96.0097Z" fill="white"/>
<path d="M68.5864 30C64.33 30 59.6817 32.1825 54.7715 36.4853C52.446 38.5235 50.4303 40.7047 48.9175 42.4544C48.9201 42.4571 48.9228 42.4597 48.9254 42.4637C48.9294 42.4584 48.932 42.4557 48.932 42.4557C48.932 42.4557 51.3184 45.0538 53.9442 47.8346C55.3578 46.155 57.4 43.8626 59.7479 41.8059C64.1129 37.9796 66.9638 37.1775 68.5864 37.1775C74.7091 37.1775 79.6895 42.0335 79.6895 48.0013C79.6895 53.936 74.7064 58.7881 68.5785 58.8251C68.2992 58.8251 67.9406 58.7907 67.4985 58.6928C69.284 59.4657 71.2031 60.0216 73.0309 60.0216C84.2531 60.0216 86.4462 52.6985 86.5957 52.1797C86.9279 50.8376 87.104 49.44 87.104 48.0026C87.1026 38.0749 78.7962 30 68.5864 30Z" fill="url(#paint0_linear_4163_2813)"/>
<path d="M29.3835 66.0001C33.6399 66.0001 38.2882 63.8176 43.1985 59.5148C45.5239 57.4766 47.5396 55.2954 49.0524 53.5457C49.0498 53.5431 49.0471 53.5404 49.0445 53.5365C49.0405 53.5417 49.0379 53.5444 49.0379 53.5444C49.0379 53.5444 46.6516 50.9463 44.0257 48.1656C42.6121 49.8451 40.5699 52.1375 38.222 54.1943C33.857 58.0206 31.0061 58.8226 29.3835 58.8226C23.2608 58.8226 18.2804 53.9666 18.2804 47.9988C18.2804 42.0641 23.2635 37.212 29.3914 37.175C29.6707 37.175 30.0293 37.2094 30.4714 37.3073C28.686 36.5344 26.7668 35.9785 24.9391 35.9785C13.7168 35.9785 11.5238 43.3016 11.3742 43.8204C11.042 45.1625 10.866 46.5601 10.866 47.9975C10.8673 57.9253 19.1738 66.0001 29.3835 66.0001Z" fill="url(#paint1_linear_4163_2813)"/>
<path d="M73.0095 59.839C67.2641 59.6974 61.2923 55.1669 60.0733 54.0406C56.926 51.1301 49.6624 43.2499 49.092 42.6318C43.7674 36.6706 36.5529 30 29.3833 30H29.3741H29.3648C20.6494 30.0437 13.3249 35.9453 11.3767 43.8229C11.5263 43.3041 14.3891 35.8421 24.9323 36.1015C30.6777 36.2431 36.6786 40.8344 37.8963 41.9607C41.0436 44.8712 48.3098 52.7528 48.8776 53.3709C54.2022 59.3307 61.4167 66 68.5863 66H68.5955H68.6048C77.3202 65.9563 84.6447 60.0547 86.5929 52.1771C86.4447 52.6959 83.5527 60.0984 73.0095 59.839Z" fill="#29ABE2"/>
<defs>
<linearGradient id="paint0_linear_4163_2813" x1="58.9478" y1="32.3737" x2="84.1227" y2="58.4431" gradientUnits="userSpaceOnUse">
<stop offset="0.21" stop-color="#F15A24"/>
<stop offset="0.6841" stop-color="#FBB03B"/>
</linearGradient>
<linearGradient id="paint1_linear_4163_2813" x1="39.0222" y1="63.6265" x2="13.8472" y2="37.5571" gradientUnits="userSpaceOnUse">
<stop offset="0.21" stop-color="#ED1E79"/>
<stop offset="0.8929" stop-color="#522785"/>
</linearGradient>
</defs>
</svg>
