<svg width="97" height="97" viewBox="0 0 97 97" fill="none" xmlns="http://www.w3.org/2000/svg">
<ellipse cx="48.1846" cy="48.3692" rx="48.1846" ry="48.3692" fill="white"/>
<path d="M85.6235 50.1057L80.5955 45.4785L74.8952 51.7202C73.5668 53.1746 71.6336 53.9165 69.6773 53.7225L66.3717 53.3946C65.0674 53.2651 63.7786 53.7597 62.893 54.7296L43.0449 76.4623L48.0729 81.0895L70.7452 56.2643C71.7671 55.1452 73.3128 54.6705 74.7835 55.0238L77.6069 55.7021C79.0776 56.0554 80.6234 55.5806 81.6452 54.4616L85.6235 50.1057Z" fill="url(#paint0_linear)"/>
<path d="M74.8169 40.1599L69.7889 35.5327L58.967 47.3823C57.6385 48.8369 55.7054 49.5788 53.749 49.3846L50.4434 49.0567C49.1391 48.9274 47.8503 49.422 46.9648 50.3917L32.2383 66.5165L37.2662 71.1437L54.8169 51.9264C55.8388 50.8075 57.3846 50.3326 58.8553 50.6861L61.6787 51.3644C63.1493 51.7177 64.6951 51.2428 65.717 50.1239L74.8169 40.1599Z" fill="url(#paint1_linear)"/>
<path d="M64.0082 30.2136L58.9803 25.5864L43.0366 43.0441C41.7082 44.4987 39.775 45.2406 37.8188 45.0464L34.513 44.7185C33.2089 44.5892 31.9201 45.0837 31.0344 46.0535L21.4297 56.5703L26.4576 61.1974L38.8867 47.5882C39.9084 46.4693 41.4544 45.9944 42.9249 46.3477L45.7484 47.026C47.2189 47.3795 48.7649 46.9046 49.7866 45.7857L64.0082 30.2136Z" fill="url(#paint2_linear)"/>
<path d="M53.2016 20.2678L48.1737 15.6406L27.1084 38.7063C25.78 40.1608 23.8467 40.9028 21.8904 40.7087L18.5847 40.3808C17.2805 40.2513 15.9917 40.7459 15.1061 41.7157L10.623 46.6245L15.651 51.2515L22.9583 43.2504C23.9802 42.1316 25.526 41.6567 26.9967 42.01L29.8201 42.6883C31.2907 43.0415 32.8365 42.5668 33.8584 41.448L53.2016 20.2678Z" fill="url(#paint3_linear)"/>
<defs>
<linearGradient id="paint0_linear" x1="80.5955" y1="45.4785" x2="47.9377" y2="80.9651" gradientUnits="userSpaceOnUse">
<stop offset="0.209652" stop-color="#02C86A"/>
<stop offset="0.335908" stop-color="#14EA85"/>
</linearGradient>
<linearGradient id="paint1_linear" x1="69.7889" y1="35.5327" x2="37.131" y2="71.0192" gradientUnits="userSpaceOnUse">
<stop offset="0.321604" stop-color="#02C86A"/>
<stop offset="0.506424" stop-color="#11ED85"/>
</linearGradient>
<linearGradient id="paint2_linear" x1="58.9803" y1="25.5864" x2="26.3224" y2="61.073" gradientUnits="userSpaceOnUse">
<stop offset="0.501239" stop-color="#1FD17D"/>
<stop offset="0.641372" stop-color="#2CE28C"/>
</linearGradient>
<linearGradient id="paint3_linear" x1="48.1737" y1="15.6406" x2="15.5158" y2="51.1271" gradientUnits="userSpaceOnUse">
<stop offset="0.649631" stop-color="#1BC675"/>
<stop offset="0.796711" stop-color="#0FD879"/>
</linearGradient>
</defs>
</svg>
