<svg width="97" height="97" viewBox="0 0 97 97" fill="none" xmlns="http://www.w3.org/2000/svg">
<g clip-path="url(#clip0)">
<path d="M48.2632 96.1543C74.7729 96.1543 96.2632 74.664 96.2632 48.1543C96.2632 21.6446 74.7729 0.154297 48.2632 0.154297C21.7535 0.154297 0.263184 21.6446 0.263184 48.1543C0.263184 74.664 21.7535 96.1543 48.2632 96.1543Z" fill="white"/>
<path d="M52.2457 59.2246C32.6707 50.4796 20.4607 32.7271 19.7482 14.8621C19.7182 14.1121 18.8182 13.7371 18.2557 14.2321C8.79069 22.5496 2.85819 34.7671 2.97069 48.3721C3.17319 72.5971 22.8457 92.4796 47.0857 92.9371C66.6607 93.3046 83.4457 81.1846 90.0082 64.0171C90.2707 63.3421 89.6632 62.6371 88.9582 62.8171C77.5582 65.6821 64.5382 64.7221 52.2457 59.2246Z" fill="#F9D85E"/>
<path d="M92.1457 39.8747C92.1307 39.7847 92.1157 39.6947 92.0932 39.6047C91.8457 38.3072 91.5457 37.0322 91.1932 35.7797C91.1782 35.7197 91.1632 35.6672 91.1482 35.6072C90.9757 35.0072 90.7882 34.4072 90.5932 33.8147C90.5782 33.7697 90.5632 33.7247 90.5482 33.6797C90.1357 32.4422 89.6707 31.2347 89.1532 30.0497C89.1382 30.0272 89.1307 29.9972 89.1157 29.9672C88.8682 29.3972 88.6057 28.8272 88.3282 28.2722C88.3207 28.2572 88.3132 28.2422 88.3057 28.2272C88.0207 27.6497 87.7282 27.0797 87.4207 26.5172C87.4132 26.5022 87.4057 26.4872 87.3982 26.4722C87.0832 25.8947 86.7532 25.3322 86.4157 24.7697C86.4082 24.7547 86.4007 24.7397 86.3857 24.7247C86.0707 24.2072 85.7482 23.7047 85.4182 23.2022C85.3807 23.1422 85.3432 23.0897 85.3057 23.0297C84.6082 21.9797 83.8582 20.9672 83.0782 19.9847C83.0332 19.9247 82.9807 19.8647 82.9357 19.8047C82.5232 19.2872 82.0957 18.7847 81.6532 18.2897C81.6532 18.2897 81.6532 18.2897 81.6532 18.2822C81.2332 17.8022 80.7982 17.3372 80.3632 16.8797C80.3482 16.8647 80.3257 16.8422 80.3107 16.8272C79.9132 16.4147 79.5082 16.0022 79.0882 15.6047C79.0282 15.5447 78.9682 15.4922 78.9082 15.4322C78.4807 15.0272 78.0532 14.6297 77.6107 14.2397C77.5582 14.1947 77.5057 14.1497 77.4532 14.1047C77.0032 13.7147 76.5457 13.3322 76.0882 12.9572C76.0432 12.9197 76.0057 12.8897 75.9607 12.8522C75.4732 12.4622 74.9707 12.0797 74.4607 11.7047C74.4532 11.6972 74.4382 11.6897 74.4307 11.6822C73.9207 11.3072 73.3957 10.9397 72.8707 10.5872C72.8632 10.5797 72.8557 10.5797 72.8482 10.5722C71.7907 9.86719 70.6957 9.19969 69.5707 8.58469C69.5257 8.56219 69.4882 8.53969 69.4432 8.51719C68.9107 8.22469 68.3632 7.94719 67.8157 7.66969C67.7407 7.63219 67.6732 7.59469 67.5982 7.56469C66.4582 7.00969 65.2882 6.49969 64.0957 6.03469C64.0282 6.00469 63.9607 5.98219 63.8932 5.95219C63.2782 5.71969 62.6482 5.49469 62.0182 5.28469C62.0032 5.27719 61.9957 5.27719 61.9807 5.26969C61.3957 5.07469 60.8032 4.89469 60.2032 4.72219C60.1507 4.70719 60.0982 4.69219 60.0382 4.67719C59.4007 4.49719 58.7557 4.33219 58.1107 4.18219C58.0957 4.18219 58.0882 4.17469 58.0732 4.17469C57.4582 4.03219 56.8357 3.90469 56.2132 3.78469C56.1757 3.77719 56.1307 3.76969 56.0932 3.76219C55.4407 3.64219 54.7807 3.53719 54.1207 3.43969C54.1132 3.43969 54.1132 3.43969 54.1057 3.43969C53.0782 3.29719 52.0432 3.19219 50.9932 3.11719C51.1657 3.15469 51.3382 3.16969 51.5107 3.19219C51.9232 3.22969 52.3207 3.26719 52.7107 3.31219C52.7107 3.31219 52.7107 3.31219 52.7182 3.31219C53.1082 3.35719 53.4832 3.40219 53.8507 3.45469C53.8582 3.45469 53.8657 3.45469 53.8657 3.45469C54.2257 3.50719 54.5782 3.55969 54.9232 3.61969C54.9307 3.61969 54.9457 3.61969 54.9532 3.62719C55.2907 3.68719 55.6207 3.74719 55.9432 3.81469C55.9582 3.81469 55.9732 3.82219 55.9882 3.82219C56.3032 3.88969 56.6107 3.95719 56.9107 4.03219C56.9332 4.03969 56.9482 4.03969 56.9707 4.04719C57.2632 4.12219 57.5482 4.19719 57.8182 4.27969C57.8407 4.28719 57.8707 4.29469 57.8932 4.30219C58.1632 4.38469 58.4257 4.46719 58.6807 4.55719C58.7107 4.56469 58.7407 4.57969 58.7707 4.58719C59.0182 4.67719 59.2582 4.76719 59.4907 4.85719C59.5282 4.87219 59.5657 4.88719 59.6032 4.90219C59.8282 4.99219 60.0457 5.08969 60.2632 5.19469C60.3082 5.21719 60.3457 5.23969 60.3907 5.26219C60.5932 5.35969 60.7957 5.45719 60.9832 5.56219C61.0357 5.59219 61.0807 5.62219 61.1332 5.64469C61.3132 5.74969 61.4932 5.84719 61.6657 5.95969C61.7257 5.99719 61.7782 6.03469 61.8382 6.07219C61.9957 6.17719 62.1607 6.28219 62.3107 6.39469C62.3782 6.44719 62.4457 6.49969 62.5132 6.55219C62.6482 6.65719 62.7907 6.75469 62.9182 6.86719C63.0007 6.93469 63.0757 7.00969 63.1582 7.07719C63.2707 7.17469 63.3832 7.27219 63.4957 7.36969C63.6007 7.46719 63.6982 7.57219 63.8032 7.66969C63.8857 7.75219 63.9682 7.82719 64.0432 7.90969C64.2232 8.09719 64.3957 8.29219 64.5607 8.49469C64.8082 8.79469 66.0907 10.4222 66.7807 13.2797C67.6132 16.7222 67.4707 20.3072 68.2582 23.7572C68.3932 24.3347 68.5357 24.9047 68.6782 25.4597C68.7157 25.6097 68.7607 25.7522 68.7982 25.9022C68.9182 26.3297 69.0382 26.7572 69.1582 27.1697C69.1957 27.2972 69.2332 27.4247 69.2707 27.5522C73.3207 40.6022 81.4282 46.8047 92.3032 55.1072C92.6782 52.7822 92.8657 50.3972 92.8657 47.9672C92.8732 45.2222 92.6257 42.5072 92.1457 39.8747Z" fill="#EF7730"/>
<path d="M92.4457 41.7642C90.8557 38.0892 90.8557 38.0892 48.2107 22.6842C26.7532 14.9292 22.7707 7.44418 38.3032 4.05418C39.0607 3.88918 39.8257 3.74668 40.5907 3.61918C42.9682 3.22918 45.4057 3.03418 47.8882 3.03418C70.6207 3.03418 89.4157 19.8867 92.4457 41.7642Z" fill="#F9D85E"/>
</g>
<defs>
<clipPath id="clip0">
<rect width="96" height="96" fill="white" transform="translate(0.263184 0.154297)"/>
</clipPath>
</defs>
</svg>
