<svg width="96" height="96" viewBox="0 0 96 96" fill="none" xmlns="http://www.w3.org/2000/svg">
<path d="M80.6819 12.8527C78.2688 14.2167 69.4556 14.6363 68.8261 14.8462C67.9868 15.056 52.1442 15.056 51.8294 14.8462C51.6196 14.7413 49.3114 13.1675 48.2622 12.4331C47.9475 12.2232 47.8425 12.1183 47.8425 12.1183C47.8425 12.1183 49.4163 11.6986 51.7245 11.0691C57.5999 9.60027 68.4065 6.87241 70.3999 7.18716C71.6589 7.397 73.4425 7.71175 75.2261 8.34126C75.9606 8.86585 76.695 9.39044 77.4294 9.91503C78.3737 10.6495 79.213 11.3839 80.0524 12.1183C80.2622 12.4331 80.472 12.6429 80.6819 12.8527Z" fill="url(#paint0_linear)"/>
<path d="M1.46894 36.249C15.423 33.5211 29.3771 30.1637 43.4361 27.7506C57.6001 25.3375 73.9672 22.2949 88.8656 23.8686C89.0754 23.8686 89.2853 23.8686 89.4951 23.9736C89.8099 24.6031 90.2295 25.2326 90.5443 25.8621C92.9574 30.4785 94.6361 35.4096 95.3705 40.7604C95.4754 41.5998 95.5803 42.544 95.6853 43.3834C95.1607 44.0129 94.5312 44.6424 94.0066 45.2719C91.8033 45.167 89.7049 45.167 87.5017 45.2719C87.2918 45.2719 86.9771 45.2719 86.7672 45.3768C84.564 40.1309 72.7082 41.4949 67.5673 42.3342C61.3771 43.1735 55.1869 44.2227 48.9968 45.3768C48.4722 45.4817 47.8427 45.5867 47.3181 45.6916C44.1705 46.2162 40.9181 46.8457 37.7706 47.3703C24.2361 49.6785 14.164 51.7768 5.9804 52.9309C5.87548 52.4063 5.66565 51.9867 5.56073 51.4621C5.3509 50.7276 5.14106 49.8883 4.82631 49.1539C4.51156 48.3145 4.30172 47.4752 3.98696 46.6358C3.35746 44.9571 2.83286 43.1735 2.30827 41.4949C1.8886 40.2358 1.57385 38.9768 1.36401 37.7178" fill="url(#paint1_linear)"/>
<path d="M77.3246 10.0199C69.3508 8.13142 60.6426 9.49535 52.459 11.4888C51.0951 11.8035 49.6262 12.2232 48.2623 12.538C46.5836 12.9576 44.9049 13.3773 43.3311 13.9019C37.8754 15.3708 32.4197 17.0494 26.9639 18.4134C23.6066 19.2527 19.8295 20.6167 16.2623 20.197C14.2689 19.9871 11.7508 19.4626 10.282 18.4134C15.5279 11.6986 22.5574 6.45273 30.741 3.30519C36.0918 1.20683 41.9672 0.0527344 48.0525 0.0527344C58.1246 0.0527344 67.4623 3.20027 75.2262 8.44617C75.9606 8.97076 76.5901 9.49535 77.3246 10.0199Z" fill="url(#paint2_linear)"/>
<path d="M86.1376 77.064C84.5639 79.1623 82.8852 81.0509 80.9967 82.8345C79.1081 84.6181 77.1147 86.1918 75.0163 87.6607C70.6098 90.7033 65.6786 92.9066 60.4327 94.3754C59.8032 94.5853 59.1737 94.6902 58.5442 94.7951C55.1868 95.5295 51.6196 95.9492 47.9475 95.9492C43.1213 95.9492 38.5049 95.2148 34.0983 93.9558C33.1541 93.641 32.2098 93.3263 31.3705 93.0115C27.8033 91.6476 24.4459 89.9689 21.2983 87.8705C20.1442 87.0312 18.9902 86.1918 17.8361 85.3525C18.0459 85.4574 18.2557 85.4574 18.4655 85.5623C26.5442 87.5558 35.3573 86.1918 43.7508 84.1984C46.8983 83.464 50.0459 82.5197 52.9836 81.7853C58.4393 80.3164 63.895 78.5328 69.4557 77.064C72.813 76.1197 76.695 74.8607 80.1573 75.2804C80.9967 75.3853 81.836 75.4902 82.7803 75.7C84.0393 76.0148 85.2983 76.4345 86.1376 77.064Z" fill="#61C0E2"/>
<path d="M48.577 45.2716C48.1573 45.3765 47.7377 45.5864 47.318 45.6913C47.2131 45.6913 47.1082 45.6913 47.1082 45.7962C39.1344 48.3142 31.0557 50.6224 22.8721 52.3011C17.3115 53.4552 11.541 54.7142 5.87541 53.1404C3.88197 52.6159 1.88853 51.6716 0.104924 50.3077C0.104924 49.5732 0 48.7339 0 47.9995C0 44.4323 0.419678 40.865 1.1541 37.5077C1.25902 37.088 1.36394 36.6683 1.46886 36.2487C2.09837 36.0388 2.62296 35.9339 3.25246 35.7241C11.6459 33.9405 20.7738 36.1437 28.7475 38.7667C35.2524 40.865 41.8623 43.1732 48.577 45.2716Z" fill="url(#paint3_linear)"/>
<path d="M95.7901 43.2789C95.895 44.8527 96 46.3216 96 47.8953C96 49.8888 95.895 51.7773 95.6852 53.6658C94.5311 53.8757 93.2721 53.8757 92.0131 53.7707C77.3245 52.8265 63.0557 49.4691 48.9967 45.2724C48.8918 45.2724 48.6819 45.1675 48.577 45.1675C48.9967 45.0625 49.3115 44.9576 49.7311 44.7478C59.4885 41.3904 69.2459 37.2986 79.5278 36.4593C84.0393 36.0396 89.0754 36.2494 93.1672 38.6625C93.7967 39.0822 94.7409 39.7117 95.4754 40.5511C95.5803 41.6002 95.6852 42.4396 95.7901 43.2789Z" fill="url(#paint4_linear)"/>
<path d="M94.531 59.8573C92.9573 66.2573 90.0196 72.0278 86.1376 77.0639C84.5638 79.1622 82.8851 81.0507 80.9966 82.8343C81.731 81.6802 82.2556 80.6311 82.6753 79.5819C82.9901 78.6376 83.3048 77.6934 83.095 76.7491C82.9901 76.3294 82.8852 76.0147 82.7802 75.6999C80.7868 71.1884 72.7081 72.4475 69.1409 73.1819C61.9016 74.6507 54.7671 76.4343 47.6327 78.113C33.259 81.5753 24.236 84.4081 17.1016 84.7229C12.4852 80.8409 8.60323 76.0147 5.66553 70.5589C8.60323 70.1393 12.1704 69.5098 16.3671 68.3557C28.2229 65.313 39.8688 61.536 51.7245 58.7032C62.7409 56.0803 75.6458 52.7229 86.977 55.3458C90.1245 56.0803 92.6425 57.654 94.531 59.8573Z" fill="url(#paint5_linear)"/>
<path d="M75.0164 87.6603C70.6099 90.7029 65.6787 92.9062 60.4328 94.375C59.8033 94.5849 59.1738 94.6898 58.5443 94.7947L34.2033 93.9554C33.259 93.6406 32.3148 93.3259 31.4755 93.0111C35.6722 92.5914 40.8132 91.857 46.5836 90.598C48.1574 90.2832 49.8361 89.8636 51.6197 89.339C64.3148 85.9816 71.659 85.3521 75.0164 87.6603Z" fill="url(#paint6_linear)"/>
<path d="M60.4327 94.374C59.8032 94.5839 59.1737 94.6888 58.5442 94.7937C55.1868 95.5281 51.6196 95.9478 47.9475 95.9478C43.1213 95.9478 38.5049 95.2134 34.0983 93.9544C33.1541 93.6396 32.2098 93.3249 31.3705 93.0101C27.8033 91.6462 24.4459 89.9675 21.2983 87.8691C25.4951 87.1347 33.0492 87.3445 46.4787 90.597C50.5705 91.5413 55.1868 92.8003 60.4327 94.374Z" fill="url(#paint7_linear)"/>
<path d="M89.4951 23.9744C89.8098 24.6039 90.2295 25.2334 90.5443 25.8629C90.0197 25.1285 89.3902 24.499 88.8656 23.8695C74.5967 9.18095 46.4787 19.1482 41.5476 20.3022C36.1967 21.5613 15.9476 27.8563 3.98694 28.6957C5.66563 24.9186 7.76399 21.4563 10.282 18.2039C15.5279 11.4891 22.5574 6.24324 30.741 3.0957C36.1968 4.87931 41.5476 7.08259 46.4787 9.18094C48.1574 9.91537 49.941 10.5449 51.6197 11.0695C51.9344 11.1744 52.1443 11.2793 52.4591 11.2793C57.4951 12.8531 62.741 13.7973 68.1967 13.7973C71.659 13.7973 76.6951 13.9023 80.0525 12.1186C80.2623 12.3285 80.4722 12.5383 80.7869 12.7482C84.1443 16.1055 87.1869 19.8826 89.4951 23.9744Z" fill="url(#paint8_linear)"/>
<defs>
<linearGradient id="paint0_linear" x1="47.8425" y1="11.0829" x2="80.7263" y2="11.0829" gradientUnits="userSpaceOnUse">
<stop offset="0.211" stop-color="#61BFE1"/>
<stop offset="0.9997" stop-color="#736C94"/>
</linearGradient>
<linearGradient id="paint1_linear" x1="-21.2026" y1="38.1833" x2="95.7484" y2="38.1833" gradientUnits="userSpaceOnUse">
<stop offset="0.3795" stop-color="#078B7B"/>
<stop offset="0.9091" stop-color="#4DB0B7"/>
</linearGradient>
<linearGradient id="paint2_linear" x1="10.2819" y1="10.1641" x2="77.3246" y2="10.1641" gradientUnits="userSpaceOnUse">
<stop stop-color="#F1E931"/>
<stop offset="0.1119" stop-color="#ECE735"/>
<stop offset="0.2515" stop-color="#DCE242"/>
<stop offset="0.4059" stop-color="#C3D957"/>
<stop offset="0.571" stop-color="#9FCD74"/>
<stop offset="0.7427" stop-color="#72BD99"/>
<stop offset="0.8663" stop-color="#4DB0B7"/>
</linearGradient>
<linearGradient id="paint3_linear" x1="0.548406" y1="44.5507" x2="97.737" y2="43.8565" gradientUnits="userSpaceOnUse">
<stop stop-color="#61BFE1"/>
<stop offset="0.0931388" stop-color="#63B4D7"/>
<stop offset="0.2566" stop-color="#6A97BC"/>
<stop offset="0.4519" stop-color="#736C94"/>
</linearGradient>
<linearGradient id="paint4_linear" x1="92.5997" y1="44.649" x2="34.9571" y2="49.668" gradientUnits="userSpaceOnUse">
<stop stop-color="#804C88"/>
<stop offset="0.2619" stop-color="#6C5F8B"/>
<stop offset="0.658" stop-color="#51788F"/>
<stop offset="0.8911" stop-color="#61C1E3"/>
</linearGradient>
<linearGradient id="paint5_linear" x1="5.66553" y1="69.5588" x2="94.531" y2="69.5588" gradientUnits="userSpaceOnUse">
<stop stop-color="#F1E931"/>
<stop offset="0.1373" stop-color="#EDE834"/>
<stop offset="0.2777" stop-color="#E1E33E"/>
<stop offset="0.4194" stop-color="#CCDC4F"/>
<stop offset="0.5622" stop-color="#AFD267"/>
<stop offset="0.7058" stop-color="#8AC585"/>
<stop offset="0.8481" stop-color="#5EB6A9"/>
<stop offset="0.8963" stop-color="#4DB0B7"/>
</linearGradient>
<linearGradient id="paint6_linear" x1="31.3899" y1="90.5409" x2="74.9816" y2="90.5409" gradientUnits="userSpaceOnUse">
<stop offset="0.2004" stop-color="#F1E931"/>
<stop offset="0.9285" stop-color="#4DB0B7"/>
</linearGradient>
<linearGradient id="paint7_linear" x1="21.348" y1="91.7338" x2="60.3826" y2="91.7338" gradientUnits="userSpaceOnUse">
<stop stop-color="#804C88"/>
<stop offset="0.2619" stop-color="#6C5F8B"/>
<stop offset="0.658" stop-color="#51788F"/>
<stop offset="0.8911" stop-color="#61C1E3"/>
</linearGradient>
<linearGradient id="paint8_linear" x1="47.2656" y1="2.01536" x2="47.2656" y2="35.482" gradientUnits="userSpaceOnUse">
<stop offset="0.1684" stop-color="#44518C"/>
<stop offset="0.9831" stop-color="#008181"/>
</linearGradient>
</defs>
</svg>
