<?xml version="1.0" encoding="UTF-8"?>
<svg version="1.1" xmlns="http://www.w3.org/2000/svg" width="500" height="500">
<path d="M0 0 C0.66 0 1.32 0 2 0 C2.30256103 12.38748086 2.53286947 24.77406887 2.67355824 37.16450596 C2.74111968 42.91951997 2.83258852 48.67198822 2.98071289 54.42553711 C3.12303057 59.9890038 3.19990957 65.55003891 3.23340416 71.11518669 C3.25723905 73.22719515 3.30378533 75.33908547 3.37449074 77.45004463 C3.73287264 88.60376144 3.61404413 96.93451583 -4.1965332 105.47241211 C-5.86256919 107.15689502 -7.56229334 108.78330148 -9.30773354 110.38519096 C-12.73109003 113.65185559 -15.66936466 117.36105649 -18.6770525 121.00578213 C-21.00577103 123.82730806 -23.27878693 126.30745701 -26.16015625 128.5703125 C-31.05221321 132.71804412 -33.6892755 136.15256558 -34.40527344 142.71386719 C-34.68016054 148.68488776 -34.65701036 154.63521817 -34.3269043 160.60253906 C-34.02115503 168.23058713 -34.30515301 173.25586845 -39.74609375 179.2109375 C-41.48738324 180.81820739 -43.23852079 182.41488278 -45 184 C-46.53186569 185.80679236 -48.03662491 187.63730183 -49.5 189.5 C-53.39489405 194.32553246 -57.49507669 198.91544472 -61.69921875 203.47265625 C-63.69660789 205.66673227 -65.60967356 207.90163081 -67.5 210.1875 C-68.7375 211.5796875 -68.7375 211.5796875 -70 213 C-70.66 213 -71.32 213 -72 213 C-72.22975205 206.22373264 -72.38644189 199.44848201 -72.49438477 192.66918945 C-72.5394171 190.36737543 -72.6006656 188.06581554 -72.67895508 185.76489258 C-73.39471738 164.17506893 -73.39471738 164.17506893 -67.77734375 157.26953125 C-66.23062102 155.79678817 -64.64295513 154.3645592 -63 153 C-62.06493032 151.98540696 -61.14410822 150.95711861 -60.25 149.90625 C-59.13625 148.71515625 -59.13625 148.71515625 -58 147.5 C-53.95088933 143.09988283 -50.12806203 138.57152436 -46.3984375 133.8984375 C-44 131 -44 131 -42.03981018 129.39735413 C-37.54419633 125.36770831 -35.5552976 122.03381801 -35.18554592 115.91147518 C-35.12519367 112.65982953 -35.15280661 109.41890229 -35.24405098 106.16801643 C-35.31770779 103.4877958 -35.33939388 100.81140646 -35.34812927 98.13023376 C-35.37975663 91.47716306 -35.49378624 84.82608965 -35.61523438 78.1741333 C-35.71598574 72.54148722 -35.78014226 66.91080274 -35.79456902 61.27725029 C-35.81597241 58.65089223 -35.89045936 56.02955407 -35.9669342 53.40431213 C-36.06875684 45.55570855 -36.09885553 40.16017759 -30.60717773 34.02709961 C-29.09712865 32.65591262 -27.56448196 31.30873916 -26 30 C-24.48170209 28.18179139 -22.97690348 26.35199007 -21.5 24.5 C-17.84975808 19.99125171 -14.05357686 15.65598968 -10.1484375 11.3671875 C-7.4960488 8.4447374 -4.90150564 5.47464885 -2.3125 2.49609375 C-1.56450684 1.64347059 -0.80201622 0.80201622 0 0 Z " fill="#036095" transform="translate(85,109)"/>
<path d="M0 0 C0.99 0.33 1.98 0.66 3 1 C2.39661832 6.30163298 1.18191006 11.04606145 -0.546875 16.0859375 C-0.79995422 16.82832672 -1.05303345 17.57071594 -1.31378174 18.33560181 C-1.84809473 19.89150402 -2.38613534 21.44613071 -2.92773438 22.99951172 C-3.75269756 25.38279314 -4.54813525 27.77475567 -5.34375 30.16796875 C-5.86799916 31.68291316 -6.39398017 33.1972596 -6.921875 34.7109375 C-7.27218781 35.78581924 -7.27218781 35.78581924 -7.62957764 36.88241577 C-8.34667969 38.87646484 -8.34667969 38.87646484 -10 42 C-12.69238281 42.95556641 -12.69238281 42.95556641 -15 43 C-15.26216309 42.3387915 -15.52432617 41.67758301 -15.79443359 40.99633789 C-16.98088372 38.0155197 -18.17778555 35.03901015 -19.375 32.0625 C-19.7875 31.02158203 -20.2 29.98066406 -20.625 28.90820312 C-21.02460938 27.91884766 -21.42421875 26.92949219 -21.8359375 25.91015625 C-22.20251465 24.99371338 -22.5690918 24.07727051 -22.94677734 23.13305664 C-23.81037018 20.84315047 -23.81037018 20.84315047 -26 20 C-26.09796875 20.64453125 -26.1959375 21.2890625 -26.296875 21.953125 C-27.24218204 26.0494555 -28.70336808 29.84722244 -30.25 33.75 C-30.68119141 34.91982422 -30.68119141 34.91982422 -31.12109375 36.11328125 C-31.41628906 36.85449219 -31.71148437 37.59570312 -32.015625 38.359375 C-32.27633789 39.03452148 -32.53705078 39.70966797 -32.80566406 40.40527344 C-34 42 -34 42 -36.62402344 42.72753906 C-37.4080957 42.81745117 -38.19216797 42.90736328 -39 43 C-39.25168945 42.30028076 -39.50337891 41.60056152 -39.76269531 40.87963867 C-40.92493559 37.64885573 -42.08746634 34.41817738 -43.25 31.1875 C-43.64574219 30.08728516 -44.04148437 28.98707031 -44.44921875 27.85351562 C-44.84238281 26.76103516 -45.23554688 25.66855469 -45.640625 24.54296875 C-46.03217773 23.45201904 -46.42373047 22.36106934 -46.82714844 21.23706055 C-47.5999802 19.10405133 -48.38423293 16.97514049 -49.18066406 14.85083008 C-49.54385742 13.87911865 -49.90705078 12.90740723 -50.28125 11.90625 C-50.60673828 11.04708984 -50.93222656 10.18792969 -51.26757812 9.30273438 C-52.16993339 6.46572941 -52.31944144 3.95483334 -52 1 C-49.64916992 1.14501953 -49.64916992 1.14501953 -47 2 C-45.63793945 4.45263672 -45.63793945 4.45263672 -44.61328125 7.6796875 C-44.23236328 8.83597656 -43.85144531 9.99226563 -43.45898438 11.18359375 C-43.08064453 12.40175781 -42.70230469 13.61992187 -42.3125 14.875 C-41.54116418 17.26932837 -40.76657103 19.66261052 -39.98828125 22.0546875 C-39.65352783 23.12187012 -39.31877441 24.18905273 -38.97387695 25.28857422 C-38.06321815 28.16602613 -38.06321815 28.16602613 -36 31 C-35.74307373 30.36908447 -35.48614746 29.73816895 -35.22143555 29.08813477 C-34.05477521 26.24146255 -32.8714066 23.40204032 -31.6875 20.5625 C-31.28337891 19.56927734 -30.87925781 18.57605469 -30.46289062 17.55273438 C-30.06650391 16.60849609 -29.67011719 15.66425781 -29.26171875 14.69140625 C-28.71970825 13.37958374 -28.71970825 13.37958374 -28.16674805 12.04125977 C-27 10 -27 10 -24 9 C-20.74050304 12.75092881 -19.14193882 17.07240903 -17.3125 21.625 C-16.99216797 22.40101563 -16.67183594 23.17703125 -16.34179688 23.9765625 C-14 29.7286947 -14 29.7286947 -14 32 C-13.34 32 -12.68 32 -12 32 C-11.87093262 31.12891602 -11.74186523 30.25783203 -11.60888672 29.36035156 C-10.63615385 23.99198939 -8.83839955 18.92090474 -7.125 13.75 C-6.77308594 12.64914062 -6.42117188 11.54828125 -6.05859375 10.4140625 C-5.53845703 8.84011719 -5.53845703 8.84011719 -5.0078125 7.234375 C-4.53819092 5.79916504 -4.53819092 5.79916504 -4.05908203 4.33496094 C-3 2 -3 2 0 0 Z " fill="#D7D7D7" transform="translate(375,247)"/>
<path d="M0 0 C2.88546099 0.25727012 4.51417252 0.52699989 6.61816406 2.57543945 C7.30990723 3.58417114 7.30990723 3.58417114 8.015625 4.61328125 C8.54067627 5.36174316 9.06572754 6.11020508 9.60668945 6.88134766 C10.14898193 7.68362793 10.69127441 8.4859082 11.25 9.3125 C12.3936063 10.9524683 13.53814194 12.59178893 14.68359375 14.23046875 C15.24288574 15.03919434 15.80217773 15.84791992 16.37841797 16.68115234 C18.61830471 19.88417015 20.95086696 23.01118975 23.3125 26.125 C24.03050781 27.07632812 24.74851563 28.02765625 25.48828125 29.0078125 C26.23658203 29.99394531 26.23658203 29.99394531 27 31 C27.76280697 23.04501299 28.10361857 15.19149025 27.96289062 7.20703125 C27.89835817 2.20328367 27.89835817 2.20328367 29 0 C31.475 0.495 31.475 0.495 34 1 C33.67 14.53 33.34 28.06 33 42 C32.01 42.33 31.02 42.66 30 43 C26.24914562 39.4420087 23.19119537 35.6945245 20.25 31.4375 C19.38127978 30.20237071 18.51146468 28.96801086 17.640625 27.734375 C17.20427734 27.11498047 16.76792969 26.49558594 16.31835938 25.85742188 C14.24806351 22.94060503 12.13403203 20.05790481 10 17.1875 C8.9171875 15.72376953 8.9171875 15.72376953 7.8125 14.23046875 C6.19341059 11.92499371 6.19341059 11.92499371 4 11 C4 21.23 4 31.46 4 42 C2.68 42 1.36 42 0 42 C-1.66127775 38.67744449 -1.14161724 34.96065571 -1.1328125 31.30859375 C-1.13376923 30.44814957 -1.13472595 29.58770538 -1.13571167 28.70118713 C-1.13639265 26.88127571 -1.13454409 25.06136185 -1.13037109 23.24145508 C-1.12501517 20.44542021 -1.1303222 17.64954552 -1.13671875 14.85351562 C-1.13605808 13.08854131 -1.13477715 11.3235671 -1.1328125 9.55859375 C-1.13483673 8.71695175 -1.13686096 7.87530975 -1.13894653 7.00816345 C-1.11495472 1.11495472 -1.11495472 1.11495472 0 0 Z " fill="#D7D7D8" transform="translate(139,248)"/>
<path d="M0 0 C1.32 0 2.64 0 4 0 C4.33 5.61 4.66 11.22 5 17 C12.26 17.33 19.52 17.66 27 18 C27 12.39 27 6.78 27 1 C28.65 0.67 30.3 0.34 32 0 C37.13648684 10.27297367 32.49807005 30.83978668 32 42 C30.68 42 29.36 42 28 42 C26.34714041 38.69428083 26.8994882 35.004622 26.9375 31.375 C26.958125 28.61125 26.97875 25.8475 27 23 C16.11 23.495 16.11 23.495 5 24 C4.67 29.94 4.34 35.88 4 42 C2.68 42 1.36 42 0 42 C-1.89623202 40.10376798 -1.12897626 37.33629641 -1.13894653 34.8137207 C-1.1369223 33.94706787 -1.13489807 33.08041504 -1.1328125 32.1875 C-1.13376923 31.30344482 -1.13472595 30.41938965 -1.13571167 29.50854492 C-1.13639351 27.63557871 -1.13453893 25.76261014 -1.13037109 23.88964844 C-1.12502289 21.01231612 -1.13031593 18.13513992 -1.13671875 15.2578125 C-1.13605797 13.44270799 -1.13477681 11.62760357 -1.1328125 9.8125 C-1.13483673 8.94584717 -1.13686096 8.07919434 -1.13894653 7.1862793 C-1.11495009 1.11495009 -1.11495009 1.11495009 0 0 Z " fill="#D7D7D7" transform="translate(234,248)"/>
<path d="M0 0 C1.2478125 -0.00128906 2.495625 -0.00257813 3.78125 -0.00390625 C5.0909375 -0.00003906 6.400625 0.00382813 7.75 0.0078125 C9.0596875 0.00394531 10.369375 0.00007812 11.71875 -0.00390625 C13.59046875 -0.00197266 13.59046875 -0.00197266 15.5 0 C16.64984375 0.00112793 17.7996875 0.00225586 18.984375 0.00341797 C21.75 0.1328125 21.75 0.1328125 23.75 1.1328125 C23.27986955 5.97445446 22.14785331 8.38676534 18.9375 12.0078125 C14.90412258 16.72097263 11.09235913 21.54111646 7.375 26.5078125 C6.86348389 27.18569824 6.35196777 27.86358398 5.82495117 28.56201172 C5.33873291 29.21186035 4.85251465 29.86170898 4.3515625 30.53125 C3.92182129 31.10536621 3.49208008 31.67948242 3.04931641 32.27099609 C1.50461342 34.48443183 0.13870068 36.81831136 -1.25 39.1328125 C6.67 39.1328125 14.59 39.1328125 22.75 39.1328125 C23.245 41.1128125 23.245 41.1128125 23.75 43.1328125 C20.89992869 44.55784815 18.46379745 44.26261285 15.28125 44.265625 C13.34185547 44.26755859 13.34185547 44.26755859 11.36328125 44.26953125 C10.68861816 44.26743652 10.01395508 44.2653418 9.31884766 44.26318359 C7.25806311 44.25783343 5.19749651 44.26313285 3.13671875 44.26953125 C1.84378906 44.26824219 0.55085938 44.26695312 -0.78125 44.265625 C-1.97298828 44.26449707 -3.16472656 44.26336914 -4.39257812 44.26220703 C-7.25 44.1328125 -7.25 44.1328125 -9.25 43.1328125 C-8.70000303 39.3165835 -7.72425373 36.9776621 -5.40625 33.91015625 C-4.82311035 33.12946777 -4.2399707 32.3487793 -3.63916016 31.54443359 C-3.0157373 30.72797363 -2.39231445 29.91151367 -1.75 29.0703125 C-1.12013184 28.23064941 -0.49026367 27.39098633 0.15869141 26.52587891 C2.01421483 24.05516534 3.880638 21.59306478 5.75 19.1328125 C7.15221672 17.27813889 8.55290062 15.42234681 9.95117188 13.56469727 C11.05391624 12.1020931 12.16344805 10.64461342 13.2734375 9.1875 C14.84726207 7.41917114 14.84726207 7.41917114 14.75 6.1328125 C14.12432129 6.14328613 13.49864258 6.15375977 12.85400391 6.16455078 C10.0277099 6.20604441 7.20147989 6.23211723 4.375 6.2578125 C3.39015625 6.27457031 2.4053125 6.29132813 1.390625 6.30859375 C0.44960937 6.31503906 -0.49140625 6.32148438 -1.4609375 6.328125 C-2.76490479 6.34383545 -2.76490479 6.34383545 -4.09521484 6.35986328 C-6.25 6.1328125 -6.25 6.1328125 -8.25 4.1328125 C-8.25 3.1428125 -8.25 2.1528125 -8.25 1.1328125 C-5.4522735 -0.26605075 -3.12611108 0.00306653 0 0 Z " fill="#D8D8D8" transform="translate(73.25,246.8671875)"/>
<path d="M0 0 C1.4540625 -0.00386719 1.4540625 -0.00386719 2.9375 -0.0078125 C3.948125 -0.00007812 4.95875 0.00765625 6 0.015625 C7.010625 0.00789062 8.02125 0.00015625 9.0625 -0.0078125 C10.031875 -0.00523437 11.00125 -0.00265625 12 0 C12.886875 0.00225586 13.77375 0.00451172 14.6875 0.00683594 C17 0.265625 17 0.265625 20 2.265625 C19.67 3.255625 19.34 4.245625 19 5.265625 C12.4 5.595625 5.8 5.925625 -1 6.265625 C-1.33 10.555625 -1.66 14.845625 -2 19.265625 C3.94 19.265625 9.88 19.265625 16 19.265625 C16.33 20.585625 16.66 21.905625 17 23.265625 C16 24.265625 16 24.265625 14.23413086 24.37915039 C13.48526611 24.37391357 12.73640137 24.36867676 11.96484375 24.36328125 C11.15595703 24.36005859 10.34707031 24.35683594 9.51367188 24.35351562 C8.66353516 24.34513672 7.81339844 24.33675781 6.9375 24.328125 C6.08349609 24.32361328 5.22949219 24.31910156 4.34960938 24.31445312 C2.23304337 24.30262873 0.11651315 24.28469269 -2 24.265625 C-2 29.215625 -2 34.165625 -2 39.265625 C4.93 39.265625 11.86 39.265625 19 39.265625 C19 40.585625 19 41.905625 19 43.265625 C17.31977 44.945855 15.24224072 44.39569304 12.94140625 44.3984375 C11.91595703 44.39972656 10.89050781 44.40101563 9.83398438 44.40234375 C8.21459961 44.39654297 8.21459961 44.39654297 6.5625 44.390625 C5.48677734 44.39449219 4.41105469 44.39835937 3.30273438 44.40234375 C1.76262695 44.40041016 1.76262695 44.40041016 0.19140625 44.3984375 C-0.75532959 44.39730957 -1.70206543 44.39618164 -2.67749023 44.39501953 C-5 44.265625 -5 44.265625 -7 43.265625 C-7.63374298 32.72964793 -8.12507235 22.19609271 -8.25 11.640625 C-8.27126953 10.73481689 -8.29253906 9.82900879 -8.31445312 8.89575195 C-8.31896484 8.05616943 -8.32347656 7.21658691 -8.328125 6.3515625 C-8.3374707 5.6095459 -8.34681641 4.8675293 -8.35644531 4.10302734 C-8.23881836 3.49668457 -8.12119141 2.8903418 -8 2.265625 C-4.74143956 0.09325138 -3.77357656 0.00959849 0 0 Z " fill="#D6D6D6" transform="translate(442,246.734375)"/>
<path d="M0 0 C0.92425781 0.00193359 1.84851563 0.00386719 2.80078125 0.00585938 C4.24517578 0.02422852 4.24517578 0.02422852 5.71875 0.04296875 C6.68167969 0.04361328 7.64460938 0.04425781 8.63671875 0.04492188 C15.79692497 0.08986041 15.79692497 0.08986041 19.21875 1.23046875 C18.88875 2.55046875 18.55875 3.87046875 18.21875 5.23046875 C7.82375 5.72546875 7.82375 5.72546875 -2.78125 6.23046875 C-2.45125 10.19046875 -2.12125 14.15046875 -1.78125 18.23046875 C3.82875 18.56046875 9.43875 18.89046875 15.21875 19.23046875 C15.54875 20.55046875 15.87875 21.87046875 16.21875 23.23046875 C14.09949396 25.34972479 9.5991407 24.64877892 6.65625 24.79296875 C5.84994141 24.83615234 5.04363281 24.87933594 4.21289062 24.92382812 C2.21506195 25.03022137 0.2169293 25.13087763 -1.78125 25.23046875 C-1.78125 29.85046875 -1.78125 34.47046875 -1.78125 39.23046875 C4.81875 39.23046875 11.41875 39.23046875 18.21875 39.23046875 C18.54875 40.55046875 18.87875 41.87046875 19.21875 43.23046875 C15.34619304 45.16674723 10.5404196 44.41527478 6.28125 44.41796875 C5.26611328 44.43021484 4.25097656 44.44246094 3.20507812 44.45507812 C2.23119141 44.45701172 1.25730469 44.45894531 0.25390625 44.4609375 C-1.08595337 44.46710083 -1.08595337 44.46710083 -2.45288086 44.47338867 C-4.78125 44.23046875 -4.78125 44.23046875 -7.78125 42.23046875 C-8.08510765 39.20335859 -8.20111798 36.38459401 -8.1796875 33.35546875 C-8.18255768 32.4752002 -8.18542786 31.59493164 -8.18838501 30.68798828 C-8.19042828 28.82518878 -8.18488009 26.96236795 -8.17236328 25.09960938 C-8.15631308 22.24170134 -8.17220282 19.38520759 -8.19140625 16.52734375 C-8.18942386 14.72004895 -8.18558029 12.91275503 -8.1796875 11.10546875 C-8.18576019 10.24711426 -8.19183289 9.38875977 -8.1980896 8.50439453 C-8.16943359 6.09765625 -8.16943359 6.09765625 -7.78125 2.23046875 C-4.56152718 0.08398687 -3.70472762 -0.01801498 0 0 Z " fill="#D4D4D4" transform="translate(111.78125,246.76953125)"/>
<path d="M0 0 C1.93622341 1.60034792 2.16238441 2.82701362 2.53125 5.265625 C0.84375 5.953125 0.84375 5.953125 -1.46875 6.265625 C-2.17 5.79125 -2.87125 5.316875 -3.59375 4.828125 C-7.69878748 2.59712637 -11.87858535 2.47207111 -16.46875 3.265625 C-18.82440191 5.07766493 -19.38740985 5.80082412 -19.90625 8.765625 C-19.71635641 11.33397841 -19.71635641 11.33397841 -17.87890625 12.7421875 C-13.8003841 15.32018367 -9.26651231 16.83132309 -4.78125 18.5703125 C-1.20156795 20.40236676 0.4300055 21.86458867 2.53125 25.265625 C3.30033692 28.36318888 3.19891595 31.14796452 2.53125 34.265625 C-0.39809669 37.98668701 -3.48110939 40.97931666 -8.2890625 41.671875 C-16.46727642 41.90388107 -21.25664285 40.65908237 -27.46875 35.265625 C-27.13875 33.945625 -26.80875 32.625625 -26.46875 31.265625 C-23.64666717 31.65758095 -21.84601918 31.96380966 -19.59375 33.765625 C-16.57518434 35.89637723 -14.12959141 36.07627113 -10.46875 36.265625 C-7.13375695 35.43392535 -7.13375695 35.43392535 -4.46875 34.265625 C-3.5323579 30.96616909 -3.5323579 30.96616909 -3.46875 27.265625 C-6.8461094 23.04392575 -11.92277529 22.02298434 -16.8671875 20.34375 C-20.38159877 18.88732731 -22.09550474 17.19262748 -24.46875 14.265625 C-24.79875 13.935625 -25.12875 13.605625 -25.46875 13.265625 C-26.15875381 8.49474152 -26.21196901 5.26366195 -23.28125 1.328125 C-15.72151254 -4.21568247 -8.24218083 -4.12109042 0 0 Z " fill="#D7D7D7" transform="translate(492.46875,249.734375)"/>
<path d="M0 0 C2.48297467 1.25897307 3.25861946 1.71433588 4.15234375 4.390625 C4.24644531 5.00421875 4.34054687 5.6178125 4.4375 6.25 C2.1875 6.9375 2.1875 6.9375 -0.5625 7.25 C-1.17480469 6.76917969 -1.78710938 6.28835937 -2.41796875 5.79296875 C-5.02006122 3.92078929 -6.45361713 3.8462997 -9.625 3.875 C-10.48222656 3.86726562 -11.33945312 3.85953125 -12.22265625 3.8515625 C-15.00589426 4.32550286 -15.88278267 5.01929259 -17.5625 7.25 C-18.31271244 9.70632332 -18.31271244 9.70632332 -17.5625 12.25 C-13.18852243 16.13798006 -7.81046778 17.82103467 -2.3671875 19.80859375 C0.92560785 21.50085208 2.44812169 23.14656984 4.4375 26.25 C5.35964043 30.08378068 4.76104754 33.44113114 3.3125 37.0625 C0.20463074 40.68834747 -2.5881667 41.99730755 -7.33984375 42.60546875 C-13.60195371 42.8976479 -17.90791902 42.24189283 -23.13671875 38.734375 C-24.83446123 36.96686228 -25.17933019 35.64097964 -25.5625 33.25 C-23.375 32.5 -23.375 32.5 -20.5625 32.25 C-18.88726605 33.57255312 -17.22143182 34.90705519 -15.5625 36.25 C-10.55422213 37.52483437 -7.31960213 37.22245698 -2.5625 35.25 C-1.6261079 31.95054409 -1.6261079 31.95054409 -1.5625 28.25 C-4.38377396 24.72340756 -7.91638416 23.72442053 -12.0625 22.3125 C-17.47306886 20.46765644 -20.92836176 18.51827648 -23.5625 13.25 C-23.9369411 8.28865547 -23.80148133 5.13677759 -20.5625 1.25 C-14.33934858 -3.15174125 -6.80571042 -3.09128319 0 0 Z " fill="#D6D6D6" transform="translate(314.5625,248.75)"/>
<path d="M0 0 C3.85887339 0.94365463 6.22310723 2.58936447 8.6640625 5.6875 C10.27222975 10.51200176 10.46880303 14.8768338 8.4140625 19.5 C5.81326682 22.7509946 3.61334405 24.37107282 -0.3359375 25.6875 C-4.67265053 25.82251597 -8.99605484 25.73046914 -13.3359375 25.6875 C-13.6659375 31.2975 -13.9959375 36.9075 -14.3359375 42.6875 C-15.6559375 42.6875 -16.9759375 42.6875 -18.3359375 42.6875 C-20.45641133 40.56702617 -19.52461937 35.84479778 -19.5390625 32.91015625 C-19.54476257 32.02847275 -19.55046265 31.14678925 -19.55633545 30.23838806 C-19.56579955 28.369631 -19.57232501 26.50085714 -19.57617188 24.63208008 C-19.585885 21.76549352 -19.61689778 18.89962142 -19.6484375 16.03320312 C-19.65496642 14.22135844 -19.66021733 12.40950861 -19.6640625 10.59765625 C-19.6764093 9.7361647 -19.6887561 8.87467316 -19.70147705 7.98707581 C-19.69238281 5.57055664 -19.69238281 5.57055664 -19.3359375 1.6875 C-13.9019033 -1.93518947 -6.32775271 -0.8465221 0 0 Z M-14.3359375 5.6875 C-14.43503052 8.01910055 -14.46564254 10.35379942 -14.4609375 12.6875 C-14.46351563 13.96625 -14.46609375 15.245 -14.46875 16.5625 C-14.69454643 19.55437244 -14.69454643 19.55437244 -13.3359375 20.6875 C-11.07093445 20.89261024 -8.79689373 21.00162476 -6.5234375 21.0625 C-5.27949219 21.11148437 -4.03554688 21.16046875 -2.75390625 21.2109375 C0.80282328 21.00240961 0.80282328 21.00240961 3.0859375 18.35546875 C5.00065541 15.11845803 5.21564564 13.3909868 4.6640625 9.6875 C2.88421845 6.5515843 2.14098043 5.84647264 -1.3359375 4.6875 C-3.37586558 4.59351957 -5.41885164 4.55757931 -7.4609375 4.5625 C-9.07355469 4.55863281 -9.07355469 4.55863281 -10.71875 4.5546875 C-13.26250146 4.39061025 -13.26250146 4.39061025 -14.3359375 5.6875 Z " fill="#D7D7D7" transform="translate(418.3359375,247.3125)"/>
<path d="M0 0 C1.30130859 -0.01224609 2.60261719 -0.02449219 3.94335938 -0.03710938 C5.81024414 -0.04000977 5.81024414 -0.04000977 7.71484375 -0.04296875 C8.85945068 -0.04707764 10.00405762 -0.05118652 11.18334961 -0.05541992 C14.0625 0.1875 14.0625 0.1875 17.0625 2.1875 C16.7325 3.1775 16.4025 4.1675 16.0625 5.1875 C10.1225 5.6825 10.1225 5.6825 4.0625 6.1875 C3.07302363 10.14540549 2.97720129 13.19368083 3.03515625 17.25390625 C3.04779621 18.63997152 3.06015763 20.02603936 3.07226562 21.41210938 C3.09712758 23.58691474 3.12517725 25.76158569 3.15844727 27.9362793 C3.18862979 30.04216372 3.20641137 32.14787474 3.22265625 34.25390625 C3.23949463 35.51146729 3.25633301 36.76902832 3.27368164 38.06469727 C3.0625 41.1875 3.0625 41.1875 1.0625 44.1875 C-0.4225 43.6925 -0.4225 43.6925 -1.9375 43.1875 C-2.2675 30.9775 -2.5975 18.7675 -2.9375 6.1875 C-7.2275 5.8575 -11.5175 5.5275 -15.9375 5.1875 C-15.9375 3.8675 -15.9375 2.5475 -15.9375 1.1875 C-11.37493942 -1.09378029 -5.00942821 0.00247379 0 0 Z " fill="#DADADA" transform="translate(209.9375,246.8125)"/>
<path d="M0 0 C1.65 0.33 3.3 0.66 5 1 C4.67 14.53 4.34 28.06 4 42 C2.515 42.495 2.515 42.495 1 43 C-1.66896431 40.33103569 -1.23824462 38.32876593 -1.25224304 34.70042419 C-1.24505753 33.83893265 -1.23787201 32.9774411 -1.23046875 32.08984375 C-1.23001053 31.20720352 -1.22955231 30.32456329 -1.2290802 29.41517639 C-1.22605687 27.54817359 -1.21816817 25.68117333 -1.20581055 23.81420898 C-1.18755226 20.94571061 -1.18530084 18.07753479 -1.18554688 15.20898438 C-1.18063188 13.39843469 -1.17480364 11.58788721 -1.16796875 9.77734375 C-1.16685593 8.91382797 -1.1657431 8.05031219 -1.16459656 7.16062927 C-1.11604615 1.11604615 -1.11604615 1.11604615 0 0 Z " fill="#D7D7D7" transform="translate(183,248)"/>
<path d="M0 0 C1.65 0 3.3 0 5 0 C5 13.86 5 27.72 5 42 C3.35 41.67 1.7 41.34 0 41 C0 27.47 0 13.94 0 0 Z " fill="#D4D4D4" transform="translate(384,248)"/>
<path d="M0 0 C0.33 0.66 0.66 1.32 1 2 C0.67 2.66 0.34 3.32 0 4 C0.66 4.33 1.32 4.66 2 5 C0.02 5.99 0.02 5.99 -2 7 C-2.33 21.19 -2.66 35.38 -3 50 C-1.515 49.505 -1.515 49.505 0 49 C0.33 48.01 0.66 47.02 1 46 C3.0625 45.3125 3.0625 45.3125 5 45 C4.09373216 46.2989839 3.17450463 47.58893167 2.25 48.875 C1.73953125 49.59429687 1.2290625 50.31359375 0.703125 51.0546875 C-1.09258321 53.10574871 -2.56050795 53.86832228 -5 55 C-5.1269815 48.13171166 -5.21442746 41.26372702 -5.2746582 34.39453125 C-5.29977181 32.0588042 -5.33386928 29.72315549 -5.37719727 27.38769531 C-5.43798492 24.02649586 -5.46624212 20.66633715 -5.48828125 17.3046875 C-5.51408768 16.26384003 -5.5398941 15.22299255 -5.56648254 14.15060425 C-5.56960611 6.04039961 -5.56960611 6.04039961 -2.46948242 2.29345703 C-1.65455322 1.53661621 -0.83962402 0.77977539 0 0 Z " fill="#0A5183" transform="translate(18,267)"/>
<path d="M0 0 C0 13.53 0 27.06 0 41 C-0.33 41 -0.66 41 -1 41 C-1.85916096 36.55852431 -2.11697565 32.37230176 -2.09765625 27.8515625 C-2.0962413 27.19417084 -2.09482635 26.53677917 -2.09336853 25.85946655 C-2.08781762 23.78126269 -2.07527465 21.70317073 -2.0625 19.625 C-2.05747864 18.20703282 -2.05291685 16.78906393 -2.04882812 15.37109375 C-2.03786437 11.91402678 -2.02063421 8.45702433 -2 5 C-2.66 5 -3.32 5 -4 5 C-4 5.66 -4 6.32 -4 7 C-5.32 7.33 -6.64 7.66 -8 8 C-6.48291727 4.46014029 -4.24676932 0 0 0 Z " fill="#055779" transform="translate(87,109)"/>
<path d="M0 0 C-0.33 0.99 -0.66 1.98 -1 3 C-6.44693314 3.09688221 -11.63904667 3.12862175 -17 2 C-17.33 1.01 -17.66 0.02 -18 -1 C-4.8 -3.2 -4.8 -3.2 0 0 Z " fill="#D2D2D2" transform="translate(227,249)"/>
<path d="M0 0 C0.66 0.33 1.32 0.66 2 1 C1.02289063 1.79921875 0.04578125 2.5984375 -0.9609375 3.421875 C-6.04730868 9.35348578 -4.73489385 17.87184885 -4.625 25.25 C-4.60093591 27.59769253 -4.585757 29.94412218 -4.59457397 32.29193115 C-4.59914576 33.74663646 -4.58447522 35.20156141 -4.54824829 36.65582275 C-4.54931641 38.64941406 -4.54931641 38.64941406 -5 42 C-7.02490234 43.96777344 -7.02490234 43.96777344 -9 45 C-8.67926514 44.33250732 -8.35853027 43.66501465 -8.02807617 42.97729492 C-6.79715855 39.41257385 -6.63018388 36.09199266 -6.55078125 32.36328125 C-6.52904343 31.64262985 -6.5073056 30.92197845 -6.48490906 30.17948914 C-6.44117952 28.66429519 -6.40193818 27.14896576 -6.36694336 25.63354492 C-6.31242457 23.30928434 -6.24227135 20.98587641 -6.16992188 18.66210938 C-6.12928833 17.18752506 -6.0895436 15.71291594 -6.05078125 14.23828125 C-6.03002029 13.54245438 -6.00925934 12.8466275 -5.98786926 12.12971497 C-5.85319697 8.44236735 -5.85319697 8.44236735 -7 5 C-6.01 5 -5.02 5 -4 5 C-4 4.34 -4 3.68 -4 3 C-2 1.375 -2 1.375 0 0 Z " fill="#0E5C86" transform="translate(55,240)"/>
<path d="M0 0 C0.66 0 1.32 0 2 0 C1.42886556 4.04553563 -0.67075379 6.3586316 -3.25 9.4375 C-4.01828125 10.36433594 -4.7865625 11.29117188 -5.578125 12.24609375 C-7.95294716 14.94649636 -10.42833927 17.48761514 -13 20 C-12.67 18.35 -12.34 16.7 -12 15 C-11.34 15 -10.68 15 -10 15 C-10.33 14.01 -10.66 13.02 -11 12 C-10 10 -10 10 -6.5625 8.1875 C-3.80212732 6.68594758 -3.11279627 6.22046544 -1.625 3.3125 C-1.41875 2.549375 -1.2125 1.78625 -1 1 C-0.67 0.67 -0.34 0.34 0 0 Z " fill="#0F5A86" transform="translate(84,204)"/>
<path d="M0 0 C0 4.02867919 -1.70343701 5.75779342 -4 9 C-4.99 10.485 -4.99 10.485 -6 12 C-6.66 12 -7.32 12 -8 12 C-7.690625 12.928125 -7.690625 12.928125 -7.375 13.875 C-7.25125 14.57625 -7.1275 15.2775 -7 16 C-7.66 16.66 -8.32 17.32 -9 18 C-11.625 17.625 -11.625 17.625 -14 17 C-9.68339698 10.99926777 -4.97966692 5.45993937 0 0 Z " fill="#0C5884" transform="translate(37,245)"/>
<path d="M0 0 C0 5.94 0 11.88 0 18 C-0.33 18 -0.66 18 -1 18 C-1.33 13.71 -1.66 9.42 -2 5 C-2.66 5 -3.32 5 -4 5 C-4 5.66 -4 6.32 -4 7 C-5.32 7.33 -6.64 7.66 -8 8 C-6.48291727 4.46014029 -4.24676932 0 0 0 Z " fill="#194D7A" transform="translate(87,109)"/>
<path d="M0 0 C1.2065625 0.0309375 1.2065625 0.0309375 2.4375 0.0625 C0.15070518 4.15465914 -2.46903707 7.56200248 -5.5625 11.0625 C-5.8925 11.0625 -6.2225 11.0625 -6.5625 11.0625 C-6.5625 9.4125 -6.5625 7.7625 -6.5625 6.0625 C-5.9025 5.7325 -5.2425 5.4025 -4.5625 5.0625 C-4.1903958 3.73946283 -3.85619827 2.40512065 -3.5625 1.0625 C-2.5625 0.0625 -2.5625 0.0625 0 0 Z " fill="#0B5886" transform="translate(31.5625,298.9375)"/>
<path d="M0 0 C1.96301592 3.50538557 2.95902388 7.13351728 4 11 C3.01 11.495 3.01 11.495 2 12 C1.01 11.34 0.02 10.68 -1 10 C-1.328125 7.87109375 -1.328125 7.87109375 -1.25 5.4375 C-1.23453125 4.63183594 -1.2190625 3.82617188 -1.203125 2.99609375 C-1 1 -1 1 0 0 Z " fill="#CFCFCF" transform="translate(105,279)"/>
<path d="M0 0 C1.65 0.33 3.3 0.66 5 1 C5.33 1.99 5.66 2.98 6 4 C5.34 4 4.68 4 4 4 C3.67 4.99 3.34 5.98 3 7 C1.68 6.01 0.36 5.02 -1 4 C-0.67 2.68 -0.34 1.36 0 0 Z " fill="#D1D1D1" transform="translate(466,281)"/>
<path d="M0 0 C4.29 0 8.58 0 13 0 C4.52 4.24 4.52 4.24 0.625 3.625 C0.08875 3.41875 -0.4475 3.2125 -1 3 C-0.67 2.01 -0.34 1.02 0 0 Z " fill="#D4D4D4" transform="translate(67,247)"/>
<path d="M0 0 C0.66 0.33 1.32 0.66 2 1 C0.56354149 2.60509934 -0.87420706 4.20904424 -2.3125 5.8125 C-3.11300781 6.70582031 -3.91351563 7.59914062 -4.73828125 8.51953125 C-6.45224581 10.39926786 -8.17877604 12.22592747 -10 14 C-10 12.35 -10 10.7 -10 9 C-9.01 8.67 -8.02 8.34 -7 8 C-5.11544482 6.14021584 -5.11544482 6.14021584 -3.3125 3.9375 C-2.68988281 3.20402344 -2.06726563 2.47054687 -1.42578125 1.71484375 C-0.95527344 1.14894531 -0.48476562 0.58304688 0 0 Z " fill="#125B82" transform="translate(67,226)"/>
<path d="M0 0 C3.28220895 1.64110448 3.74570789 4.69322988 5 8 C5 8.99 5 9.98 5 11 C4.34 11 3.68 11 3 11 C2.49384702 9.73160474 1.99530901 8.46016898 1.5 7.1875 C1.2215625 6.47980469 0.943125 5.77210938 0.65625 5.04296875 C0 3 0 3 0 0 Z M4 3 C4.99 3.33 5.98 3.66 7 4 C6.01 5.485 6.01 5.485 5 7 C4.67 5.68 4.34 4.36 4 3 Z " fill="#CFCFCF" transform="translate(355,275)"/>
</svg>
